<svg xmlns="http://www.w3.org/2000/svg" xmlns:xlink="http://www.w3.org/1999/xlink" width="1920" zoomAndPan="magnify" viewBox="0 0 1440 809.999993" height="1080" preserveAspectRatio="xMidYMid meet" version="1.0"><defs><g/><clipPath id="8222999f7b"><path d="M 836 543.863281 L 853 543.863281 L 853 572 L 836 572 Z M 836 543.863281 " clip-rule="nonzero"/></clipPath><clipPath id="496bc45dbb"><path d="M 856 580 L 875.890625 580 L 875.890625 586 L 856 586 Z M 856 580 " clip-rule="nonzero"/></clipPath><clipPath id="6bff90f8ff"><path d="M 792.640625 584 L 814 584 L 814 589 L 792.640625 589 Z M 792.640625 584 " clip-rule="nonzero"/></clipPath><clipPath id="b7c603c55d"><path d="M 803 596 L 819 596 L 819 610.613281 L 803 610.613281 Z M 803 596 " clip-rule="nonzero"/></clipPath><clipPath id="5fde2ec7b5"><path d="M 725 553 L 769.960938 553 L 769.960938 583 L 725 583 Z M 725 553 " clip-rule="nonzero"/></clipPath><clipPath id="830b8fad90"><path d="M 574 551 L 637.359375 551 L 637.359375 563 L 574 563 Z M 574 551 " clip-rule="nonzero"/></clipPath></defs><rect x="-144" width="1728" fill="#ffffff" y="-80.999999" height="971.999992" fill-opacity="1"/><rect x="-144" width="1728" fill="#ffffff" y="-80.999999" height="971.999992" fill-opacity="1"/><rect x="-144" width="1728" fill="#000000" y="-80.999999" height="971.999992" fill-opacity="1"/><path fill="#1ed5c3" d="M 811.542969 576.703125 C 810.449219 569.773438 809.355469 562.839844 808.289062 555.910156 C 808.199219 555.257812 808.050781 554.570312 808.082031 553.917969 C 808.113281 553.621094 808.140625 553.292969 808.257812 553.023438 C 808.289062 552.9375 808.347656 552.847656 808.40625 552.757812 C 808.378906 552.816406 808.464844 552.699219 808.464844 552.699219 C 808.40625 552.726562 808.4375 552.726562 808.527344 552.667969 C 808.496094 552.667969 808.496094 552.699219 808.464844 552.699219 C 808.851562 552.726562 808.082031 552.789062 808.082031 552.789062 C 808.113281 552.789062 808.140625 552.789062 808.171875 552.789062 C 808.113281 552.789062 808.113281 552.789062 808.171875 552.789062 C 808.289062 552.816406 808.320312 552.847656 808.4375 552.875 C 808.734375 553.023438 808.96875 553.234375 809.207031 553.441406 C 809.738281 553.976562 810.152344 554.601562 810.539062 555.226562 C 812.460938 558.140625 814.355469 561.085938 816.277344 564 C 818.4375 567.304688 820.566406 570.605469 822.726562 573.90625 C 822.960938 574.292969 823.789062 574.085938 824.117188 573.9375 C 824.441406 573.789062 824.914062 573.460938 824.679688 573.074219 C 820.625 566.855469 816.574219 560.609375 812.488281 554.394531 C 811.691406 553.144531 810.683594 551.6875 809.085938 551.539062 C 808.230469 551.449219 807.253906 551.804688 806.660156 552.429688 C 806.1875 552.9375 806.011719 553.589844 805.980469 554.304688 C 805.980469 555.078125 806.101562 555.851562 806.21875 556.59375 C 806.367188 557.488281 806.515625 558.378906 806.632812 559.300781 C 806.929688 561.144531 807.222656 562.988281 807.488281 564.832031 C 808.140625 568.96875 808.792969 573.101562 809.441406 577.238281 C 809.5 577.683594 810.359375 577.59375 810.625 577.503906 C 811.011719 577.414062 811.632812 577.148438 811.542969 576.703125 Z M 811.542969 576.703125 " fill-opacity="1" fill-rule="nonzero"/><g clip-path="url(#8222999f7b)"><path fill="#1ed5c3" d="M 838.640625 568.9375 C 840.949219 562.601562 843.226562 556.265625 845.535156 549.902344 C 846.1875 548.117188 846.835938 546.332031 847.488281 544.546875 C 846.777344 544.667969 846.097656 544.816406 845.386719 544.933594 C 846.6875 551.6875 847.960938 558.4375 849.261719 565.191406 C 849.617188 567.09375 849.972656 568.96875 850.359375 570.871094 C 850.503906 571.675781 852.605469 571.167969 852.457031 570.308594 C 851.15625 563.554688 849.882812 556.804688 848.582031 550.050781 C 848.226562 548.148438 847.871094 546.273438 847.488281 544.371094 C 847.398438 543.953125 846.71875 543.984375 846.421875 544.011719 C 845.980469 544.101562 845.535156 544.308594 845.386719 544.757812 C 843.078125 551.09375 840.800781 557.425781 838.496094 563.792969 C 837.84375 565.578125 837.191406 567.363281 836.542969 569.148438 C 836.363281 569.621094 837.191406 569.710938 837.457031 569.683594 C 837.960938 569.652344 838.496094 569.414062 838.640625 568.9375 Z M 838.640625 568.9375 " fill-opacity="1" fill-rule="nonzero"/></g><path fill="#1ed5c3" d="M 852.308594 571.140625 C 852.992188 571.140625 853.671875 571.199219 854.382812 571.40625 C 855.089844 571.617188 855.800781 571.914062 856.421875 572.300781 C 857.753906 573.074219 858.90625 574.234375 859.824219 575.453125 C 861.867188 578.1875 862.988281 581.699219 862.929688 585.121094 C 862.84375 592.230469 858.109375 598.863281 852.132812 602.222656 C 848.554688 604.246094 844.675781 605.167969 840.652344 605.671875 C 838.582031 605.941406 836.511719 606.058594 834.441406 606.148438 C 832.28125 606.238281 830.121094 606.269531 827.960938 606.148438 C 823.910156 605.941406 819.828125 605.109375 816.246094 603.117188 C 813.257812 601.449219 810.597656 598.953125 808.878906 595.945312 C 807.164062 592.914062 806.367188 589.433594 806.839844 585.984375 C 807.222656 582.949219 808.496094 579.796875 810.832031 577.800781 C 810.980469 577.683594 811.128906 577.566406 811.277344 577.445312 C 811.425781 577.328125 811.542969 577.238281 811.601562 577.207031 C 811.75 577.117188 811.929688 577 812.074219 576.910156 C 812.164062 576.878906 812.222656 576.820312 812.3125 576.792969 C 812.578125 576.644531 812.136719 576.878906 812.402344 576.761719 C 812.636719 576.644531 813.289062 576.316406 812.992188 575.988281 C 812.695312 575.660156 811.898438 575.871094 811.601562 576.019531 C 808.464844 577.476562 806.367188 580.300781 805.359375 583.542969 C 804.296875 586.90625 804.355469 590.621094 805.597656 593.925781 C 806.898438 597.40625 809.292969 600.4375 812.28125 602.609375 C 815.65625 605.050781 819.621094 606.386719 823.703125 606.953125 C 828.167969 607.578125 832.785156 607.398438 837.28125 607.042969 C 841.777344 606.683594 846.273438 605.941406 850.476562 604.214844 C 854.144531 602.699219 857.429688 600.4375 860.03125 597.40625 C 862.488281 594.550781 864.261719 591.039062 864.914062 587.292969 C 865.535156 583.664062 864.941406 579.914062 863.167969 576.671875 C 861.539062 573.699219 858.996094 571.140625 855.652344 570.308594 C 854.855469 570.097656 854.054688 570.039062 853.226562 570.039062 C 852.753906 570.039062 852.101562 570.1875 851.808594 570.605469 C 851.480469 570.992188 852.015625 571.140625 852.308594 571.140625 Z M 852.308594 571.140625 " fill-opacity="1" fill-rule="nonzero"/><path fill="#1ed5c3" d="M 818.109375 585.03125 C 819.648438 586.011719 821.15625 586.992188 822.695312 588.003906 C 823.140625 588.273438 823.820312 588.183594 824.207031 587.855469 C 824.53125 587.589844 824.765625 587.082031 824.324219 586.816406 C 822.785156 585.832031 821.277344 584.851562 819.738281 583.839844 C 819.292969 583.574219 818.613281 583.664062 818.230469 583.988281 C 817.902344 584.226562 817.667969 584.734375 818.109375 585.03125 Z M 818.109375 585.03125 " fill-opacity="1" fill-rule="nonzero"/><path fill="#1ed5c3" d="M 848.640625 580.835938 C 847.429688 581.996094 846.214844 583.1875 845.003906 584.347656 C 844.648438 584.671875 844.855469 585.238281 845.269531 585.386719 C 845.800781 585.566406 846.363281 585.359375 846.75 585 C 847.960938 583.839844 849.175781 582.652344 850.386719 581.492188 C 850.742188 581.164062 850.535156 580.597656 850.121094 580.449219 C 849.589844 580.273438 849.027344 580.449219 848.640625 580.835938 Z M 848.640625 580.835938 " fill-opacity="1" fill-rule="nonzero"/><path fill="#1ed5c3" d="M 834.589844 591.992188 C 834.5 593.0625 834.058594 594.132812 833.375 594.9375 C 833.199219 595.144531 833.019531 595.324219 832.8125 595.5 C 832.667969 595.648438 832.933594 595.410156 832.753906 595.558594 C 832.695312 595.589844 832.636719 595.648438 832.605469 595.679688 C 832.488281 595.769531 832.398438 595.828125 832.28125 595.917969 C 832.460938 595.796875 832.28125 595.917969 832.253906 595.945312 C 832.191406 595.976562 832.132812 596.007812 832.074219 596.035156 C 832.046875 596.035156 832.046875 596.066406 832.015625 596.066406 C 831.925781 596.125 831.925781 596.097656 832.074219 596.035156 C 832.074219 596.035156 831.898438 596.097656 831.898438 596.097656 C 831.867188 596.097656 831.867188 596.097656 831.839844 596.125 C 831.71875 596.15625 831.75 596.15625 831.925781 596.097656 C 831.867188 596.097656 831.808594 596.125 831.777344 596.125 C 831.542969 596.183594 831.925781 596.097656 831.808594 596.125 C 831.71875 596.125 831.660156 596.15625 831.570312 596.15625 C 831.304688 596.183594 831.007812 596.273438 830.773438 596.421875 C 830.65625 596.480469 830.417969 596.632812 830.359375 596.78125 C 830.242188 597.167969 831.070312 597.078125 831.214844 597.046875 C 832.695312 596.839844 834.144531 596.125 835.179688 594.996094 C 836.070312 594.011719 836.601562 592.765625 836.71875 591.457031 C 836.71875 591.070312 834.648438 591.308594 834.589844 591.992188 Z M 834.589844 591.992188 " fill-opacity="1" fill-rule="nonzero"/><path fill="#1ed5c3" d="M 835.238281 593.03125 C 835.652344 593.984375 836.394531 594.785156 837.3125 595.261719 C 838.464844 595.828125 839.707031 595.828125 840.949219 595.5 C 841.1875 595.441406 841.453125 595.351562 841.660156 595.203125 C 841.71875 595.171875 841.925781 595.054688 841.925781 594.90625 C 841.867188 594.609375 840.921875 594.875 840.800781 594.90625 C 840.566406 594.964844 841.066406 594.847656 840.832031 594.90625 C 840.652344 594.9375 841.007812 594.90625 840.890625 594.90625 C 840.859375 594.90625 840.773438 594.9375 840.742188 594.90625 C 840.800781 594.9375 840.890625 594.90625 840.742188 594.90625 C 840.683594 594.90625 840.652344 594.90625 840.59375 594.90625 C 840.566406 594.90625 840.386719 594.875 840.535156 594.90625 C 840.445312 594.90625 840.328125 594.875 840.238281 594.875 C 839.824219 594.785156 839.46875 594.667969 839.085938 594.460938 C 838.316406 594.011719 837.695312 593.328125 837.339844 592.496094 C 837.28125 592.378906 837.074219 592.378906 836.984375 592.378906 C 836.75 592.378906 836.453125 592.4375 836.214844 592.496094 C 836.070312 592.496094 835.121094 592.765625 835.238281 593.03125 Z M 835.238281 593.03125 " fill-opacity="1" fill-rule="nonzero"/><g clip-path="url(#496bc45dbb)"><path fill="#1ed5c3" d="M 857.339844 584.972656 C 863.167969 583.632812 869.023438 582.292969 874.851562 580.957031 C 875.058594 580.894531 875.890625 580.6875 875.800781 580.359375 C 875.742188 580.035156 874.792969 580.273438 874.675781 580.332031 C 868.847656 581.667969 862.988281 583.007812 857.160156 584.347656 C 856.953125 584.40625 856.125 584.613281 856.214844 584.941406 C 856.273438 585.269531 857.191406 585 857.339844 584.972656 Z M 857.339844 584.972656 " fill-opacity="1" fill-rule="nonzero"/></g><path fill="#1ed5c3" d="M 857.722656 590.921875 C 861.984375 591.308594 866.214844 591.664062 870.476562 592.050781 C 870.976562 592.082031 871.570312 591.929688 871.953125 591.664062 C 872.28125 591.425781 872.21875 591.1875 871.804688 591.128906 C 867.546875 590.742188 863.316406 590.382812 859.054688 590 C 858.550781 589.96875 857.960938 590.117188 857.578125 590.382812 C 857.25 590.621094 857.308594 590.890625 857.722656 590.921875 Z M 857.722656 590.921875 " fill-opacity="1" fill-rule="nonzero"/><path fill="#1ed5c3" d="M 854.972656 596.394531 C 858.34375 599.515625 862.042969 602.195312 866.097656 604.363281 C 867.25 604.960938 868.402344 605.523438 869.585938 606.058594 C 870.0625 606.269531 870.742188 606.03125 871.066406 605.671875 C 871.421875 605.285156 871.242188 604.898438 870.800781 604.691406 C 866.835938 602.9375 863.109375 600.648438 859.734375 597.941406 C 858.757812 597.167969 857.8125 596.332031 856.894531 595.5 C 856.511719 595.144531 855.949219 595.144531 855.476562 595.351562 C 855.210938 595.5 854.589844 596.035156 854.972656 596.394531 Z M 854.972656 596.394531 " fill-opacity="1" fill-rule="nonzero"/><g clip-path="url(#6bff90f8ff)"><path fill="#1ed5c3" d="M 793.140625 585.566406 C 798.113281 586.371094 803.050781 587.140625 808.023438 587.945312 C 809.441406 588.183594 810.832031 588.390625 812.253906 588.628906 C 812.757812 588.71875 813.347656 588.570312 813.730469 588.242188 C 814.027344 587.945312 814 587.558594 813.523438 587.5 C 808.554688 586.695312 803.613281 585.921875 798.644531 585.121094 C 797.222656 584.882812 795.832031 584.671875 794.414062 584.4375 C 793.910156 584.347656 793.320312 584.496094 792.933594 584.824219 C 792.640625 585.121094 792.699219 585.507812 793.140625 585.566406 Z M 793.140625 585.566406 " fill-opacity="1" fill-rule="nonzero"/></g><path fill="#1ed5c3" d="M 797.195312 598.535156 C 802.636719 597.019531 808.113281 595.5 813.554688 593.984375 C 813.96875 593.863281 814.53125 593.476562 814.414062 592.972656 C 814.265625 592.46875 813.585938 592.40625 813.171875 592.527344 C 807.726562 594.042969 802.253906 595.558594 796.808594 597.078125 C 796.394531 597.195312 795.832031 597.582031 795.953125 598.089844 C 796.070312 598.59375 796.78125 598.652344 797.195312 598.535156 Z M 797.195312 598.535156 " fill-opacity="1" fill-rule="nonzero"/><g clip-path="url(#b7c603c55d)"><path fill="#1ed5c3" d="M 805.242188 609.957031 C 809.679688 605.910156 814.148438 601.867188 818.585938 597.820312 C 818.9375 597.492188 818.761719 597.019531 818.347656 596.898438 C 817.816406 596.71875 817.253906 596.957031 816.867188 597.285156 C 812.429688 601.332031 807.964844 605.375 803.527344 609.421875 C 803.171875 609.75 803.347656 610.222656 803.761719 610.34375 C 804.296875 610.523438 804.855469 610.3125 805.242188 609.957031 Z M 805.242188 609.957031 " fill-opacity="1" fill-rule="nonzero"/></g><path fill="#1ed5c3" d="M 825.179688 573.488281 C 826.039062 572.746094 826.984375 572.0625 827.992188 571.496094 C 828.910156 570.992188 829.914062 570.546875 830.832031 570.277344 C 831.304688 570.128906 831.808594 570.007812 832.253906 569.921875 C 832.785156 569.800781 833.199219 569.773438 833.761719 569.710938 C 834.855469 569.621094 835.949219 569.652344 837.042969 569.800781 C 837.519531 569.859375 838.082031 569.710938 838.496094 569.535156 C 838.640625 569.472656 839.234375 569.085938 838.761719 569.027344 C 834.441406 568.460938 829.945312 569.445312 826.1875 571.617188 C 825.152344 572.210938 824.207031 572.894531 823.289062 573.699219 C 822.933594 573.996094 823.613281 574.023438 823.761719 573.996094 C 824.234375 573.964844 824.828125 573.816406 825.179688 573.488281 Z M 825.179688 573.488281 " fill-opacity="1" fill-rule="nonzero"/><path fill="#ff914d" d="M 696.746094 554.183594 C 692.15625 557.820312 687.980469 562.144531 685.320312 567.394531 C 682.664062 572.644531 681.488281 578.820312 682.871094 584.582031 C 684.007812 589.417969 686.875 593.8125 690.742188 596.96875 C 694.882812 600.363281 700.027344 602.046875 705.410156 602.148438 C 711.832031 602.25 718.21875 600.328125 723.949219 597.621094 C 728.503906 595.457031 732.75 592.609375 736.0625 588.769531 C 739.480469 584.753906 741.519531 579.710938 741.414062 574.425781 C 741.3125 569.007812 739.136719 563.621094 735.511719 559.570312 C 731.785156 555.421875 726.605469 552.882812 721.117188 551.953125 C 714.730469 550.855469 708.171875 551.953125 701.992188 553.671875 C 700.371094 554.117188 698.785156 554.632812 697.160156 555.144531 C 696.988281 555.214844 696.230469 555.453125 696.472656 555.730469 C 696.710938 556.003906 697.714844 555.625 697.957031 555.558594 C 703.789062 553.601562 709.898438 552.058594 716.113281 552.402344 C 721.429688 552.710938 726.710938 554.527344 730.816406 557.890625 C 734.925781 561.253906 737.6875 566.089844 738.6875 571.234375 C 739.6875 576.382812 738.757812 581.632812 736.03125 586.09375 C 733.507812 590.207031 729.679688 593.433594 725.5 595.835938 C 720.839844 598.546875 715.558594 600.535156 710.175781 601.085938 C 704.894531 601.632812 699.542969 600.605469 695.089844 597.6875 C 691.050781 595.082031 687.875 591.273438 686.117188 586.8125 C 684.042969 581.5625 684.25 575.730469 686.117188 570.445312 C 688.015625 565.027344 691.535156 560.359375 695.746094 556.519531 C 696.746094 555.589844 697.78125 554.734375 698.851562 553.875 C 699.265625 553.566406 698.507812 553.566406 698.335938 553.566406 C 697.78125 553.738281 697.160156 553.875 696.746094 554.183594 Z M 696.746094 554.183594 " fill-opacity="1" fill-rule="nonzero"/><path fill="#ff914d" d="M 696.710938 555.214844 C 692.292969 558.4375 688.152344 562.042969 684.285156 565.917969 C 680.351562 569.863281 676.726562 574.117188 673.445312 578.613281 C 671.753906 580.910156 670.167969 583.246094 668.683594 585.644531 C 667.164062 588.046875 665.609375 590.519531 664.4375 593.089844 C 663.367188 595.355469 662.710938 598.304688 664.195312 600.570312 C 665.921875 603.175781 669.40625 602.285156 671.859375 601.359375 C 677.242188 599.335938 682.214844 596.246094 686.425781 592.371094 C 686.976562 591.890625 687.496094 591.375 687.980469 590.859375 C 688.359375 590.484375 687.667969 590.378906 687.425781 590.378906 C 686.910156 590.414062 686.289062 590.585938 685.90625 590.964844 C 682.144531 594.738281 677.726562 597.894531 672.824219 599.988281 C 672.203125 600.261719 671.582031 600.5 670.960938 600.742188 C 670.445312 600.914062 669.925781 601.117188 669.476562 601.1875 C 668.371094 601.394531 667.300781 601.015625 666.613281 600.089844 C 665.058594 598.066406 665.609375 595.183594 666.578125 593.054688 C 667.128906 591.789062 667.855469 590.585938 668.511719 589.386719 C 669.167969 588.21875 669.890625 587.050781 670.582031 585.886719 C 671.996094 583.585938 673.515625 581.324219 675.105469 579.128906 C 678.246094 574.804688 681.664062 570.6875 685.355469 566.84375 C 688.945312 563.140625 692.8125 559.675781 696.953125 556.519531 C 697.472656 556.140625 697.988281 555.730469 698.507812 555.351562 C 698.851562 555.078125 698.785156 554.800781 698.335938 554.769531 C 697.816406 554.734375 697.125 554.90625 696.710938 555.214844 Z M 696.710938 555.214844 " fill-opacity="1" fill-rule="nonzero"/><g clip-path="url(#5fde2ec7b5)"><path fill="#ff914d" d="M 725.605469 554.460938 C 730.851562 555.453125 736.03125 556.792969 741.105469 558.40625 C 746.246094 560.050781 751.285156 561.972656 756.1875 564.167969 C 758.605469 565.265625 760.988281 566.363281 763.332031 567.632812 C 765.128906 568.59375 766.925781 569.898438 767.371094 572.023438 C 767.855469 574.394531 766.542969 576.792969 764.644531 578.167969 C 762.78125 579.503906 760.503906 580.398438 758.363281 580.945312 C 753.808594 582.078125 748.734375 581.597656 744.347656 579.777344 C 743.761719 579.539062 743.210938 579.265625 742.65625 578.988281 C 742.242188 578.785156 741.585938 578.957031 741.171875 579.09375 C 741.070312 579.128906 740.136719 579.574219 740.484375 579.746094 C 745.246094 582.179688 750.597656 582.96875 755.878906 582.179688 C 758.605469 581.769531 761.296875 580.945312 763.78125 579.746094 C 766.0625 578.648438 768.375 577.136719 769.339844 574.703125 C 769.789062 573.570312 769.960938 572.300781 769.652344 571.097656 C 769.375 570.070312 768.71875 569.144531 767.960938 568.421875 C 767.164062 567.703125 766.234375 567.152344 765.300781 566.671875 C 764.058594 566.019531 762.816406 565.402344 761.574219 564.820312 C 756.464844 562.382812 751.253906 560.222656 745.867188 558.40625 C 740.550781 556.585938 735.097656 555.078125 729.574219 553.945312 C 728.917969 553.808594 728.226562 553.671875 727.574219 553.53125 C 727.054688 553.429688 726.433594 553.601562 725.949219 553.808594 C 725.707031 553.910156 725.085938 554.355469 725.605469 554.460938 Z M 725.605469 554.460938 " fill-opacity="1" fill-rule="nonzero"/></g><path fill="#ff914d" d="M 702.375 575.523438 C 702.269531 575.628906 702.199219 575.730469 702.132812 575.867188 C 702.0625 576.003906 702.027344 576.109375 701.992188 576.246094 C 701.960938 576.382812 701.992188 576.484375 701.992188 576.621094 C 701.992188 576.691406 701.992188 576.761719 702.027344 576.863281 C 702.0625 576.964844 702.097656 577.035156 702.167969 577.136719 C 702.199219 577.207031 702.269531 577.308594 702.339844 577.378906 C 702.582031 577.652344 702.925781 577.753906 703.304688 577.789062 C 703.445312 577.789062 703.546875 577.789062 703.683594 577.789062 C 703.824219 577.789062 703.960938 577.753906 704.101562 577.71875 C 704.375 577.652344 704.582031 577.550781 704.824219 577.410156 C 704.859375 577.378906 704.894531 577.378906 704.929688 577.34375 C 705.03125 577.273438 705.136719 577.207031 705.203125 577.101562 C 705.273438 577.035156 705.34375 576.929688 705.410156 576.863281 C 705.445312 576.828125 705.480469 576.792969 705.480469 576.761719 C 705.550781 576.621094 705.617188 576.484375 705.652344 576.347656 C 705.6875 576.210938 705.6875 576.074219 705.652344 575.9375 C 705.652344 575.867188 705.617188 575.765625 705.582031 575.695312 C 705.550781 575.558594 705.480469 575.457031 705.375 575.351562 C 705.273438 575.25 705.167969 575.148438 705.03125 575.078125 C 704.894531 575.011719 704.753906 574.941406 704.617188 574.90625 C 704.515625 574.871094 704.375 574.871094 704.238281 574.839844 C 704.101562 574.839844 703.960938 574.839844 703.859375 574.839844 C 703.71875 574.839844 703.582031 574.871094 703.445312 574.90625 C 703.339844 574.941406 703.203125 574.976562 703.097656 575.011719 C 703.0625 575.011719 703.0625 575.042969 703.03125 575.042969 C 702.824219 575.148438 702.546875 575.285156 702.410156 575.523438 C 702.304688 575.695312 702.269531 575.902344 702.441406 576.039062 C 702.617188 576.210938 702.855469 576.28125 703.0625 576.28125 C 703.167969 576.28125 703.269531 576.28125 703.339844 576.28125 C 703.546875 576.246094 703.753906 576.210938 703.960938 576.109375 C 703.996094 576.109375 703.996094 576.074219 704.03125 576.074219 C 703.925781 576.109375 703.824219 576.140625 703.71875 576.175781 C 703.753906 576.175781 703.753906 576.175781 703.789062 576.140625 C 703.683594 576.175781 703.582031 576.175781 703.476562 576.210938 C 703.511719 576.210938 703.546875 576.210938 703.546875 576.210938 C 703.445312 576.210938 703.339844 576.210938 703.269531 576.210938 C 703.304688 576.210938 703.339844 576.210938 703.375 576.210938 C 703.269531 576.210938 703.203125 576.175781 703.097656 576.175781 C 703.132812 576.175781 703.203125 576.210938 703.238281 576.210938 C 703.167969 576.175781 703.097656 576.140625 703.03125 576.140625 C 703.097656 576.175781 703.167969 576.210938 703.238281 576.246094 C 703.167969 576.210938 703.132812 576.175781 703.0625 576.109375 C 703.167969 576.175781 703.238281 576.246094 703.269531 576.347656 C 703.238281 576.28125 703.203125 576.246094 703.167969 576.175781 C 703.238281 576.28125 703.269531 576.417969 703.269531 576.519531 C 703.269531 576.449219 703.269531 576.382812 703.269531 576.347656 C 703.269531 576.449219 703.269531 576.554688 703.203125 576.65625 C 703.238281 576.589844 703.238281 576.519531 703.269531 576.484375 C 703.238281 576.554688 703.203125 576.65625 703.132812 576.726562 C 703.167969 576.65625 703.238281 576.621094 703.269531 576.554688 C 703.238281 576.589844 703.203125 576.621094 703.167969 576.65625 C 703.238281 576.589844 703.304688 576.554688 703.375 576.484375 C 703.339844 576.519531 703.304688 576.554688 703.269531 576.554688 C 703.339844 576.519531 703.445312 576.453125 703.511719 576.417969 C 703.476562 576.417969 703.445312 576.453125 703.410156 576.453125 C 703.511719 576.417969 703.617188 576.382812 703.71875 576.347656 C 703.683594 576.347656 703.652344 576.347656 703.652344 576.382812 C 703.753906 576.347656 703.859375 576.347656 703.960938 576.3125 C 703.925781 576.3125 703.890625 576.3125 703.859375 576.3125 C 703.960938 576.3125 704.066406 576.3125 704.132812 576.3125 C 704.101562 576.3125 704.066406 576.3125 704.066406 576.3125 C 704.167969 576.3125 704.238281 576.347656 704.339844 576.347656 C 704.308594 576.347656 704.273438 576.347656 704.238281 576.3125 C 704.308594 576.347656 704.375 576.382812 704.445312 576.382812 C 704.410156 576.347656 704.339844 576.347656 704.308594 576.3125 C 704.375 576.347656 704.410156 576.382812 704.480469 576.453125 C 704.410156 576.382812 704.339844 576.3125 704.308594 576.246094 C 704.339844 576.3125 704.375 576.347656 704.410156 576.417969 C 704.339844 576.28125 704.308594 576.109375 704.308594 575.972656 C 704.308594 576.039062 704.308594 576.109375 704.308594 576.140625 C 704.308594 576.003906 704.308594 575.902344 704.375 575.800781 C 704.339844 575.867188 704.339844 575.9375 704.308594 575.972656 C 704.339844 575.902344 704.375 575.867188 704.410156 575.800781 C 704.375 575.867188 704.308594 575.902344 704.273438 575.972656 C 704.375 575.902344 704.410156 575.800781 704.445312 575.695312 C 704.480469 575.628906 704.515625 575.523438 704.480469 575.421875 C 704.410156 575.214844 704.203125 575.113281 704.03125 575.042969 C 703.753906 574.976562 703.445312 574.976562 703.167969 575.078125 C 703.0625 575.113281 702.960938 575.148438 702.855469 575.183594 C 702.683594 575.320312 702.511719 575.421875 702.375 575.523438 Z M 702.375 575.523438 " fill-opacity="1" fill-rule="nonzero"/><path fill="#ff914d" d="M 719.910156 570.652344 C 719.53125 570.6875 719.183594 570.789062 718.875 571.03125 C 718.667969 571.203125 718.527344 571.375 718.425781 571.578125 C 718.355469 571.714844 718.320312 571.855469 718.285156 572.023438 C 718.285156 572.058594 718.285156 572.09375 718.285156 572.164062 C 718.285156 572.265625 718.285156 572.367188 718.320312 572.503906 C 718.320312 572.539062 718.320312 572.574219 718.355469 572.609375 C 718.390625 572.710938 718.425781 572.816406 718.492188 572.917969 C 718.632812 573.089844 718.839844 573.226562 719.046875 573.292969 C 719.289062 573.363281 719.460938 573.398438 719.703125 573.363281 C 719.839844 573.363281 719.976562 573.328125 720.117188 573.292969 C 720.253906 573.261719 720.390625 573.226562 720.496094 573.15625 C 720.566406 573.125 720.703125 573.054688 720.808594 572.984375 C 720.910156 572.917969 720.980469 572.816406 721.046875 572.746094 C 721.152344 572.644531 721.222656 572.539062 721.289062 572.4375 C 721.324219 572.402344 721.324219 572.335938 721.359375 572.300781 C 721.394531 572.195312 721.429688 572.058594 721.460938 571.957031 C 721.460938 571.820312 721.460938 571.714844 721.429688 571.578125 C 721.394531 571.476562 721.324219 571.375 721.253906 571.304688 C 721.1875 571.203125 721.082031 571.132812 720.945312 571.097656 C 720.808594 571.066406 720.667969 571.03125 720.53125 571.03125 C 720.359375 571.03125 720.21875 571.03125 720.082031 571.066406 C 719.976562 571.097656 719.875 571.132812 719.769531 571.167969 C 719.597656 571.234375 719.460938 571.375 719.324219 571.511719 C 719.183594 571.683594 719.082031 571.921875 719.148438 572.164062 C 719.148438 572.195312 719.148438 572.230469 719.183594 572.265625 C 719.183594 572.195312 719.183594 572.128906 719.183594 572.058594 C 719.183594 572.128906 719.183594 572.164062 719.148438 572.230469 C 719.183594 572.164062 719.183594 572.09375 719.21875 572.023438 C 719.21875 572.09375 719.183594 572.128906 719.148438 572.195312 C 719.183594 572.128906 719.253906 572.058594 719.289062 571.992188 C 719.253906 572.023438 719.21875 572.058594 719.183594 572.09375 C 719.253906 572.023438 719.324219 571.957031 719.390625 571.921875 C 719.355469 571.957031 719.324219 571.992188 719.289062 571.992188 C 719.355469 571.957031 719.460938 571.886719 719.53125 571.855469 C 719.496094 571.855469 719.496094 571.886719 719.460938 571.886719 C 719.5625 571.855469 719.667969 571.820312 719.769531 571.785156 C 719.738281 571.785156 719.738281 571.785156 719.703125 571.820312 C 719.804688 571.785156 719.910156 571.785156 720.011719 571.75 C 719.976562 571.75 719.976562 571.75 719.945312 571.75 C 720.046875 571.75 720.152344 571.75 720.253906 571.75 C 720.21875 571.75 720.21875 571.75 720.183594 571.75 C 720.289062 571.785156 720.359375 571.785156 720.460938 571.820312 C 720.425781 571.820312 720.425781 571.820312 720.390625 571.785156 C 720.460938 571.820312 720.53125 571.855469 720.601562 571.886719 C 720.566406 571.886719 720.53125 571.855469 720.53125 571.820312 C 720.601562 571.886719 720.632812 571.921875 720.703125 571.992188 C 720.667969 571.957031 720.632812 571.921875 720.632812 571.886719 C 720.667969 571.957031 720.703125 572.023438 720.738281 572.09375 C 720.703125 572.023438 720.703125 571.957031 720.667969 571.886719 C 720.667969 571.957031 720.667969 572.023438 720.667969 572.09375 C 720.667969 571.992188 720.667969 571.921875 720.703125 571.820312 C 720.667969 571.886719 720.667969 571.957031 720.632812 572.023438 C 720.667969 571.957031 720.667969 571.921875 720.703125 571.855469 C 720.667969 571.921875 720.601562 571.992188 720.566406 572.058594 C 720.601562 572.023438 720.601562 571.992188 720.632812 571.992188 C 720.566406 572.058594 720.496094 572.128906 720.425781 572.164062 C 720.460938 572.164062 720.460938 572.128906 720.496094 572.128906 C 720.425781 572.164062 720.324219 572.230469 720.253906 572.265625 C 720.289062 572.265625 720.289062 572.230469 720.324219 572.230469 C 720.21875 572.265625 720.117188 572.300781 720.011719 572.335938 C 720.046875 572.335938 720.046875 572.335938 720.082031 572.335938 C 719.976562 572.367188 719.875 572.367188 719.769531 572.402344 C 719.769531 572.402344 719.769531 572.402344 719.804688 572.402344 C 719.976562 572.402344 720.117188 572.367188 720.253906 572.300781 C 720.390625 572.265625 720.53125 572.195312 720.667969 572.09375 C 720.773438 572.023438 720.875 571.921875 720.945312 571.820312 C 721.015625 571.714844 721.046875 571.613281 721.082031 571.511719 C 721.082031 571.441406 721.082031 571.375 721.082031 571.304688 C 721.046875 571.167969 720.945312 571.03125 720.808594 570.960938 C 720.738281 570.925781 720.667969 570.894531 720.601562 570.859375 C 720.289062 570.6875 720.117188 570.652344 719.910156 570.652344 Z M 719.910156 570.652344 " fill-opacity="1" fill-rule="nonzero"/><path fill="#ff914d" d="M 711.382812 580.019531 C 711.175781 580.398438 711.175781 580.910156 711.347656 581.289062 C 711.453125 581.496094 711.589844 581.667969 711.761719 581.804688 C 712.109375 582.042969 712.558594 582.007812 712.972656 581.976562 C 713.625 581.90625 714.316406 581.667969 714.800781 581.21875 C 715.007812 581.046875 715.179688 580.808594 715.25 580.535156 C 715.316406 580.292969 715.351562 580.019531 715.25 579.777344 C 715.179688 579.574219 715.007812 579.367188 714.835938 579.230469 C 714.59375 579.023438 714.25 578.957031 713.9375 578.957031 C 713.558594 578.957031 713.210938 578.988281 712.867188 579.09375 C 712.523438 579.195312 712.140625 579.332031 711.832031 579.539062 C 711.761719 579.609375 711.519531 579.746094 711.554688 579.882812 C 711.589844 580.019531 711.867188 580.054688 711.96875 580.054688 C 712.246094 580.054688 712.558594 580.019531 712.796875 579.949219 C 713.074219 579.882812 713.351562 579.777344 713.59375 579.640625 C 713.625 579.640625 713.625 579.609375 713.660156 579.609375 C 713.765625 579.539062 713.488281 579.710938 713.488281 579.675781 C 713.625 579.609375 713.179688 579.777344 713.316406 579.746094 C 713.210938 579.777344 713.144531 579.8125 713.039062 579.8125 C 713.109375 579.777344 713.074219 579.8125 712.9375 579.847656 C 712.796875 579.882812 712.765625 579.882812 712.796875 579.882812 C 712.902344 579.882812 712.796875 579.882812 712.558594 579.917969 C 712.589844 579.917969 712.695312 579.917969 712.488281 579.917969 C 712.28125 579.917969 712.453125 579.917969 712.488281 579.917969 C 712.417969 579.917969 712.351562 579.917969 712.28125 579.882812 C 712.347656 579.882812 712.417969 579.917969 712.488281 579.949219 C 712.453125 579.917969 712.382812 579.917969 712.351562 579.882812 C 712.523438 579.949219 712.660156 580.054688 712.796875 580.226562 C 712.765625 580.191406 712.765625 580.15625 712.730469 580.15625 C 712.902344 580.398438 712.972656 580.671875 712.9375 580.945312 C 712.9375 580.910156 712.9375 580.878906 712.9375 580.84375 C 712.902344 581.046875 712.832031 581.253906 712.695312 581.425781 C 712.730469 581.390625 712.765625 581.355469 712.796875 581.324219 C 712.730469 581.390625 712.660156 581.460938 712.589844 581.527344 C 712.660156 581.496094 712.695312 581.460938 712.765625 581.390625 C 712.730469 581.425781 712.589844 581.496094 712.765625 581.390625 C 712.9375 581.289062 712.867188 581.355469 712.832031 581.355469 C 712.730469 581.390625 713.144531 581.21875 713.003906 581.289062 C 713.246094 581.1875 713.453125 581.152344 713.730469 581.117188 C 713.59375 581.117188 714.007812 581.117188 713.902344 581.117188 C 713.867188 581.117188 713.867188 581.117188 713.832031 581.117188 C 713.902344 581.117188 713.972656 581.117188 714.042969 581.152344 C 713.972656 581.152344 713.9375 581.117188 713.867188 581.117188 C 713.902344 581.152344 713.972656 581.152344 714.007812 581.1875 C 713.867188 581.117188 713.765625 581.046875 713.660156 580.910156 C 713.695312 580.945312 713.695312 580.980469 713.730469 580.980469 C 713.523438 580.707031 713.417969 580.328125 713.453125 579.984375 C 713.453125 580.019531 713.453125 580.054688 713.453125 580.089844 C 713.488281 579.949219 713.523438 579.8125 713.59375 579.675781 C 713.660156 579.539062 713.488281 579.46875 713.386719 579.4375 C 713.179688 579.367188 712.867188 579.402344 712.660156 579.46875 C 712.351562 579.539062 712.074219 579.609375 711.796875 579.746094 C 711.660156 579.746094 711.488281 579.847656 711.382812 580.019531 Z M 711.382812 580.019531 " fill-opacity="1" fill-rule="nonzero"/><path fill="#ff914d" d="M 711.867188 580.191406 C 712.210938 581.835938 712.625 583.621094 712.140625 585.269531 C 711.96875 585.921875 711.625 586.605469 711.105469 587.019531 C 711.074219 587.050781 711.003906 587.085938 710.96875 587.121094 C 711.039062 587.085938 711.003906 587.085938 710.96875 587.121094 C 710.898438 587.15625 710.898438 587.15625 710.96875 587.121094 C 711.003906 586.984375 711.347656 587.085938 711.417969 587.019531 C 711.453125 586.984375 711.453125 587.019531 711.382812 587.019531 C 711.074219 586.984375 710.796875 586.8125 710.554688 586.605469 C 710.449219 586.503906 710.105469 586.539062 709.96875 586.539062 C 709.65625 586.570312 709.347656 586.640625 709.070312 586.742188 C 708.933594 586.8125 708.105469 587.121094 708.378906 587.359375 C 709.242188 588.117188 710.519531 587.980469 711.554688 587.671875 C 712.625 587.359375 713.523438 586.777344 714.074219 585.78125 C 715.109375 583.863281 714.664062 581.597656 714.214844 579.574219 C 714.144531 579.265625 713.144531 579.503906 712.972656 579.539062 C 712.730469 579.609375 711.796875 579.847656 711.867188 580.191406 Z M 711.867188 580.191406 " fill-opacity="1" fill-rule="nonzero"/><path fill="#ff914d" d="M 712.558594 582.285156 C 712.832031 583.414062 713.523438 584.515625 714.523438 585.132812 C 715.941406 585.988281 717.769531 585.921875 719.253906 585.304688 C 719.425781 585.234375 720.253906 584.890625 719.910156 584.582031 C 719.597656 584.308594 718.734375 584.515625 718.425781 584.652344 C 718.355469 584.683594 718.285156 584.683594 718.21875 584.71875 C 718.078125 584.789062 718.492188 584.652344 718.21875 584.71875 C 718.046875 584.753906 718.21875 584.683594 718.285156 584.71875 C 718.285156 584.71875 718.011719 584.753906 718.183594 584.753906 C 718.355469 584.71875 718.113281 584.753906 718.078125 584.753906 C 717.90625 584.753906 718.148438 584.753906 718.046875 584.753906 C 717.90625 584.753906 717.804688 584.753906 717.664062 584.71875 C 717.769531 584.71875 717.597656 584.683594 717.5625 584.683594 C 717.492188 584.652344 717.425781 584.652344 717.355469 584.617188 C 717.214844 584.582031 717.078125 584.515625 716.941406 584.445312 C 716.734375 584.34375 716.5625 584.238281 716.386719 584.101562 C 715.59375 583.484375 715.109375 582.625 714.835938 581.667969 C 714.800781 581.496094 714.523438 581.460938 714.421875 581.460938 C 714.144531 581.425781 713.832031 581.496094 713.59375 581.5625 C 713.316406 581.632812 713.039062 581.734375 712.796875 581.90625 C 712.695312 581.976562 712.523438 582.113281 712.558594 582.285156 Z M 712.558594 582.285156 " fill-opacity="1" fill-rule="nonzero"/><g clip-path="url(#830b8fad90)"><path fill="#ff52b4" d="M 575.082031 562.070312 C 580.441406 561.84375 585.820312 561.621094 591.175781 561.398438 C 596.511719 561.171875 601.871094 560.949219 607.207031 560.726562 C 609.90625 560.613281 612.585938 560.503906 615.285156 560.390625 C 617.789062 560.277344 620.3125 560.1875 622.59375 559.046875 C 624.472656 558.128906 625.691406 556.472656 626.976562 554.886719 C 627.574219 554.148438 628.125 553.5 628.835938 552.9375 C 628.878906 552.917969 628.925781 552.871094 628.96875 552.847656 C 628.992188 552.828125 629.125 552.738281 629.035156 552.804688 C 628.945312 552.871094 629.101562 552.761719 629.101562 552.761719 C 629.144531 552.738281 629.191406 552.691406 629.234375 552.671875 C 629.34375 552.601562 629.457031 552.558594 629.566406 552.492188 C 629.367188 552.582031 629.675781 552.445312 629.742188 552.425781 C 630.007812 552.335938 629.589844 552.46875 629.855469 552.378906 C 629.898438 552.355469 629.964844 552.355469 630.007812 552.335938 C 630.164062 552.289062 629.808594 552.355469 629.964844 552.335938 C 630.074219 552.3125 630.1875 552.3125 630.273438 552.289062 C 630.429688 552.269531 630.097656 552.289062 630.253906 552.289062 C 630.320312 552.289062 630.386719 552.289062 630.453125 552.289062 C 630.5625 552.289062 630.671875 552.289062 630.785156 552.289062 C 630.628906 552.289062 630.894531 552.3125 630.960938 552.3125 C 631.183594 552.335938 631.449219 552.402344 631.558594 552.425781 C 631.980469 552.535156 632.378906 552.714844 632.753906 552.9375 C 633.507812 553.386719 634.171875 554.082031 634.546875 554.863281 C 635.34375 556.496094 635.234375 558.601562 634.257812 560.144531 C 634.015625 560.523438 633.726562 560.859375 633.460938 561.085938 C 633.351562 561.171875 633.195312 561.332031 633.242188 561.488281 C 633.285156 561.644531 633.507812 561.710938 633.640625 561.734375 C 634.105469 561.800781 634.746094 561.644531 635.101562 561.332031 C 636.628906 560.011719 637.359375 557.972656 637.113281 555.980469 C 636.871094 554.035156 635.566406 552.402344 633.773438 551.6875 C 631.648438 550.835938 629.234375 551.261719 627.394531 552.558594 C 625.78125 553.699219 624.738281 555.46875 623.410156 556.921875 C 623.078125 557.28125 622.835938 557.527344 622.460938 557.839844 C 622.371094 557.929688 622.261719 557.996094 622.171875 558.0625 C 622.082031 558.128906 622.015625 558.175781 621.972656 558.199219 C 621.863281 558.265625 621.75 558.332031 621.617188 558.398438 C 621.550781 558.421875 621.507812 558.464844 621.441406 558.488281 C 621.375 558.511719 621.375 558.511719 621.464844 558.488281 C 621.417969 558.511719 621.375 558.535156 621.332031 558.554688 C 621.21875 558.601562 621.085938 558.667969 620.953125 558.710938 C 620.886719 558.734375 620.820312 558.757812 620.777344 558.78125 C 620.621094 558.847656 620.933594 558.734375 620.777344 558.78125 C 620.644531 558.824219 620.488281 558.867188 620.355469 558.914062 C 620.289062 558.9375 620.222656 558.9375 620.15625 558.957031 C 620.136719 558.957031 619.871094 559.027344 620.003906 559.003906 C 620.136719 558.980469 619.9375 559.027344 619.890625 559.027344 C 619.824219 559.046875 619.757812 559.046875 619.691406 559.070312 C 619.539062 559.09375 619.40625 559.113281 619.25 559.136719 C 618.960938 559.183594 618.671875 559.203125 618.40625 559.226562 C 618.207031 559.25 618.628906 559.203125 618.320312 559.226562 C 618.253906 559.226562 618.1875 559.226562 618.121094 559.25 C 617.988281 559.25 617.855469 559.273438 617.722656 559.273438 C 617.410156 559.292969 617.125 559.292969 616.8125 559.316406 C 616.148438 559.339844 615.464844 559.382812 614.800781 559.40625 C 613.449219 559.472656 612.097656 559.519531 610.726562 559.585938 C 605.257812 559.808594 599.789062 560.054688 594.34375 560.277344 C 588.898438 560.503906 583.40625 560.75 577.960938 560.972656 C 577.273438 560.996094 576.609375 561.039062 575.925781 561.0625 C 575.460938 561.085938 574.839844 561.21875 574.550781 561.597656 C 574.265625 561.933594 574.796875 562.070312 575.082031 562.070312 Z M 575.082031 562.070312 " fill-opacity="1" fill-rule="nonzero"/></g><path fill="#ff52b4" d="M 576.300781 561.105469 C 575.371094 559.875 574.21875 558.734375 572.824219 558.085938 C 571.097656 557.257812 569.171875 557.144531 567.378906 557.863281 C 565.894531 558.445312 564.746094 559.71875 564.300781 561.261719 C 563.859375 562.738281 564.390625 564.304688 565.34375 565.46875 C 566.558594 566.945312 568.332031 567.683594 570.058594 568.402344 C 570.523438 568.582031 571.207031 568.378906 571.519531 568 C 571.851562 567.617188 571.695312 567.214844 571.273438 567.058594 C 570.941406 566.925781 570.632812 566.789062 570.300781 566.65625 C 569.945312 566.5 569.726562 566.410156 569.371094 566.207031 C 569.0625 566.050781 568.75 565.871094 568.464844 565.671875 C 568.199219 565.492188 567.886719 565.246094 567.710938 565.089844 C 566.824219 564.238281 566.160156 563.054688 566.273438 561.824219 C 566.339844 561.195312 566.492188 560.769531 566.824219 560.257812 C 566.824219 560.257812 566.980469 560.03125 566.890625 560.167969 C 566.9375 560.097656 566.980469 560.03125 567.046875 559.964844 C 567.136719 559.851562 567.222656 559.765625 567.3125 559.675781 C 567.335938 559.652344 567.535156 559.472656 567.378906 559.605469 C 567.421875 559.5625 567.488281 559.519531 567.535156 559.472656 C 567.578125 559.429688 567.644531 559.382812 567.6875 559.359375 C 567.734375 559.339844 568.042969 559.160156 567.800781 559.273438 C 567.933594 559.203125 568.042969 559.136719 568.175781 559.070312 C 568.21875 559.046875 568.507812 558.957031 568.265625 559.027344 C 568.351562 559.003906 568.441406 558.957031 568.53125 558.9375 C 568.597656 558.914062 568.640625 558.914062 568.707031 558.890625 C 568.996094 558.824219 568.484375 558.914062 568.796875 558.867188 C 568.972656 558.847656 569.171875 558.824219 569.347656 558.824219 C 569.636719 558.800781 569.148438 558.800781 569.460938 558.824219 C 569.546875 558.824219 569.636719 558.824219 569.746094 558.847656 C 569.902344 558.867188 570.058594 558.890625 570.210938 558.914062 C 570.035156 558.890625 570.34375 558.9375 570.34375 558.9375 C 570.433594 558.957031 570.523438 558.980469 570.609375 559.003906 C 570.789062 559.046875 570.964844 559.113281 571.140625 559.183594 C 571.320312 559.25 571.320312 559.25 571.519531 559.359375 C 571.695312 559.449219 571.871094 559.5625 572.050781 559.675781 C 572.359375 559.875 572.648438 560.078125 572.914062 560.324219 C 573.445312 560.769531 573.976562 561.398438 574.417969 561.980469 C 574.707031 562.382812 575.4375 562.292969 575.8125 562.113281 C 576.144531 561.957031 576.609375 561.53125 576.300781 561.105469 Z M 576.300781 561.105469 " fill-opacity="1" fill-rule="nonzero"/><path fill="#ff52b4" d="M 569.992188 568.042969 C 569.8125 575.226562 569.703125 583.058594 573.6875 589.367188 C 577.320312 595.140625 583.761719 598.542969 590.3125 599.574219 C 594.367188 600.199219 598.503906 599.996094 602.511719 599.328125 C 606.363281 598.675781 610.152344 597.691406 613.78125 596.304688 C 620.355469 593.777344 626.464844 589.59375 630.253906 583.484375 C 631.183594 581.984375 631.957031 580.417969 632.554688 578.761719 C 633.152344 577.0625 633.550781 575.269531 633.816406 573.480469 C 634.324219 569.902344 634.324219 566.1875 635.34375 562.695312 C 635.585938 561.84375 635.898438 561.015625 636.273438 560.210938 C 636.496094 559.742188 636.074219 559.316406 635.632812 559.273438 C 635.121094 559.203125 634.523438 559.429688 634.28125 559.921875 C 632.730469 563.253906 632.421875 566.96875 632.066406 570.570312 C 631.890625 572.363281 631.691406 574.175781 631.292969 575.941406 C 630.9375 577.53125 630.40625 579.074219 629.699219 580.550781 C 626.820312 586.660156 621.550781 591.070312 615.550781 593.84375 C 614.734375 594.222656 613.914062 594.582031 613.074219 594.894531 C 613.074219 594.894531 612.71875 595.03125 612.917969 594.960938 C 612.808594 595.007812 612.695312 595.050781 612.609375 595.074219 C 612.429688 595.140625 612.253906 595.207031 612.078125 595.277344 C 611.613281 595.433594 611.148438 595.589844 610.683594 595.746094 C 608.953125 596.304688 607.183594 596.773438 605.414062 597.179688 C 601.738281 598.007812 597.820312 598.519531 594.035156 598.296875 C 593.058594 598.253906 592.085938 598.140625 591.109375 598.007812 C 590.625 597.9375 590.136719 597.847656 589.671875 597.761719 C 589.472656 597.714844 589.273438 597.671875 589.074219 597.625 C 588.964844 597.601562 588.851562 597.582031 588.742188 597.558594 C 588.71875 597.558594 588.367188 597.46875 588.519531 597.492188 C 587.015625 597.089844 585.53125 596.550781 584.117188 595.878906 C 581.4375 594.605469 578.824219 592.65625 576.898438 590.285156 C 572.425781 584.78125 571.960938 577.441406 572.027344 570.617188 C 572.027344 569.722656 572.050781 568.828125 572.070312 567.929688 C 572.09375 567.417969 571.5625 567.148438 571.097656 567.191406 C 570.699219 567.214844 569.992188 567.507812 569.992188 568.042969 Z M 569.992188 568.042969 " fill-opacity="1" fill-rule="nonzero"/><path fill="#ff52b4" d="M 585.6875 573.480469 C 585.578125 574.0625 585.464844 574.757812 585.886719 575.25 C 585.976562 575.359375 586.085938 575.449219 586.195312 575.515625 C 586.375 575.605469 586.574219 575.628906 586.792969 575.652344 C 587.257812 575.652344 587.746094 575.539062 588.167969 575.359375 C 588.410156 575.25 588.675781 575.136719 588.875 574.957031 C 589.117188 574.734375 589.25 574.464844 589.273438 574.128906 C 589.273438 573.839844 589.164062 573.546875 588.984375 573.324219 C 588.785156 573.054688 588.519531 572.898438 588.1875 572.832031 C 587.878906 572.789062 587.546875 572.808594 587.257812 572.875 C 586.839844 572.964844 586.394531 573.101562 586.042969 573.324219 C 585.730469 573.527344 585.421875 573.816406 585.488281 574.21875 C 585.511719 574.375 585.597656 574.511719 585.710938 574.621094 C 585.863281 574.777344 586.085938 574.800781 586.308594 574.800781 C 586.550781 574.824219 586.839844 574.757812 587.058594 574.6875 C 587.304688 574.621094 587.570312 574.53125 587.769531 574.398438 C 587.835938 574.355469 588.078125 574.21875 588.011719 574.109375 C 587.945312 573.972656 587.769531 573.996094 587.65625 573.996094 C 587.878906 574.019531 587.789062 574.019531 587.722656 573.996094 C 587.769531 574.019531 587.8125 574.019531 587.855469 574.039062 C 587.769531 574.019531 587.703125 573.972656 587.636719 573.90625 C 587.65625 573.929688 587.679688 573.949219 587.703125 573.972656 C 587.589844 573.839844 587.523438 573.660156 587.546875 573.480469 C 587.546875 573.503906 587.523438 573.546875 587.523438 573.570312 C 587.546875 573.457031 587.589844 573.367188 587.679688 573.28125 C 587.65625 573.300781 587.613281 573.347656 587.589844 573.367188 C 587.613281 573.347656 587.636719 573.324219 587.65625 573.300781 C 587.679688 573.28125 587.746094 573.234375 587.65625 573.300781 C 587.546875 573.367188 587.636719 573.324219 587.65625 573.300781 C 587.503906 573.414062 587.28125 573.480469 587.105469 573.527344 C 586.925781 573.570312 586.773438 573.59375 586.59375 573.617188 C 586.507812 573.617188 586.484375 573.617188 586.527344 573.617188 C 586.484375 573.617188 586.441406 573.617188 586.417969 573.617188 C 586.460938 573.636719 586.527344 573.636719 586.59375 573.660156 C 586.550781 573.636719 586.507812 573.636719 586.460938 573.617188 C 586.640625 573.683594 586.792969 573.792969 586.90625 573.929688 C 586.882812 573.90625 586.859375 573.882812 586.839844 573.863281 C 587.082031 574.152344 587.214844 574.511719 587.148438 574.890625 C 587.148438 574.867188 587.171875 574.824219 587.171875 574.800781 C 587.125 574.957031 587.058594 575.09375 586.949219 575.226562 C 586.972656 575.203125 587.015625 575.160156 587.039062 575.136719 C 586.992188 575.179688 586.972656 575.203125 586.925781 575.226562 C 586.839844 575.292969 587.058594 575.136719 586.992188 575.179688 C 586.925781 575.226562 587.214844 575.070312 587.105469 575.136719 C 587.304688 575.046875 587.546875 574.980469 587.769531 574.933594 C 587.855469 574.914062 587.945312 574.914062 588.054688 574.890625 C 588.144531 574.890625 588.167969 574.890625 588.121094 574.890625 C 588.035156 574.890625 588.300781 574.914062 588.210938 574.890625 C 588.1875 574.890625 588.167969 574.867188 588.121094 574.867188 C 588.167969 574.890625 588.210938 574.890625 588.253906 574.914062 C 588.101562 574.867188 587.988281 574.777344 587.878906 574.667969 C 587.902344 574.6875 587.921875 574.710938 587.945312 574.734375 C 587.503906 574.242188 587.636719 573.546875 587.746094 572.964844 C 587.769531 572.855469 587.390625 572.855469 587.390625 572.855469 C 587.148438 572.855469 586.882812 572.898438 586.640625 572.964844 C 586.394531 573.035156 586.152344 573.121094 585.929688 573.257812 C 585.886719 573.300781 585.84375 573.324219 585.777344 573.367188 C 585.710938 573.347656 585.6875 573.390625 585.6875 573.480469 Z M 585.6875 573.480469 " fill-opacity="1" fill-rule="nonzero"/><path fill="#ff52b4" d="M 611.457031 572.003906 C 611.167969 572.316406 610.96875 572.742188 610.992188 573.167969 C 610.992188 573.367188 611.015625 573.570312 611.101562 573.773438 C 611.148438 573.882812 611.214844 573.996094 611.300781 574.109375 C 611.390625 574.21875 611.480469 574.285156 611.589844 574.375 C 611.746094 574.511719 611.964844 574.601562 612.164062 574.667969 C 612.453125 574.757812 612.761719 574.777344 613.050781 574.734375 C 613.449219 574.6875 613.824219 574.554688 614.179688 574.332031 C 614.421875 574.175781 614.601562 573.972656 614.753906 573.726562 C 614.976562 573.390625 615.042969 572.964844 614.953125 572.5625 C 614.867188 572.183594 614.578125 571.824219 614.246094 571.667969 C 614.003906 571.554688 613.738281 571.46875 613.449219 571.445312 C 613.050781 571.421875 612.652344 571.488281 612.296875 571.667969 C 612.164062 571.734375 612.011719 571.800781 611.898438 571.890625 C 611.699219 572.050781 611.589844 572.160156 611.457031 572.363281 C 611.324219 572.542969 611.234375 572.765625 611.234375 572.988281 C 611.234375 573.28125 611.28125 573.546875 611.480469 573.773438 C 611.722656 574.039062 612.078125 574.195312 612.453125 574.21875 C 612.785156 574.21875 613.117188 574.175781 613.425781 574.019531 C 613.625 573.929688 613.847656 573.773438 614.003906 573.617188 C 614.222656 573.347656 614.378906 573.035156 614.289062 572.675781 C 614.246094 572.472656 614.046875 572.363281 613.871094 572.296875 C 613.625 572.226562 613.316406 572.226562 613.09375 572.316406 C 612.851562 572.382812 612.585938 572.496094 612.410156 572.699219 C 612.277344 572.855469 612.1875 573.035156 612.230469 573.234375 C 612.230469 573.257812 612.230469 573.300781 612.253906 573.324219 C 612.253906 573.257812 612.253906 573.210938 612.253906 573.144531 C 612.253906 573.191406 612.253906 573.257812 612.230469 573.300781 C 612.253906 573.234375 612.277344 573.191406 612.296875 573.121094 C 612.277344 573.167969 612.253906 573.210938 612.230469 573.257812 C 612.277344 573.191406 612.320312 573.144531 612.363281 573.078125 C 612.34375 573.101562 612.320312 573.144531 612.296875 573.167969 C 612.363281 573.121094 612.429688 573.054688 612.476562 573.011719 C 612.453125 573.035156 612.410156 573.054688 612.386719 573.078125 C 612.453125 573.035156 612.542969 572.988281 612.609375 572.945312 C 612.585938 572.945312 612.5625 572.964844 612.542969 572.964844 C 612.628906 572.945312 612.71875 572.898438 612.808594 572.875 C 612.785156 572.875 612.761719 572.898438 612.742188 572.898438 C 612.828125 572.875 612.917969 572.855469 613.027344 572.855469 C 613.007812 572.855469 612.984375 572.855469 612.960938 572.855469 C 613.050781 572.855469 613.140625 572.855469 613.226562 572.855469 C 613.207031 572.855469 613.160156 572.855469 613.140625 572.855469 C 613.226562 572.875 613.292969 572.875 613.382812 572.898438 C 613.339844 572.898438 613.316406 572.875 613.273438 572.875 C 613.339844 572.898438 613.40625 572.945312 613.472656 572.964844 C 613.425781 572.945312 613.382812 572.921875 613.339844 572.875 C 613.382812 572.921875 613.425781 572.964844 613.492188 573.011719 C 613.425781 572.945312 613.382812 572.898438 613.339844 572.808594 C 613.359375 572.855469 613.382812 572.921875 613.425781 572.964844 C 613.382812 572.875 613.359375 572.808594 613.359375 572.71875 C 613.359375 572.789062 613.359375 572.832031 613.359375 572.898438 C 613.359375 572.808594 613.382812 572.71875 613.40625 572.628906 C 613.382812 572.699219 613.359375 572.742188 613.339844 572.808594 C 613.359375 572.71875 613.40625 572.652344 613.449219 572.585938 C 613.40625 572.652344 613.359375 572.699219 613.316406 572.765625 C 613.359375 572.71875 613.382812 572.675781 613.425781 572.628906 C 613.359375 572.675781 613.292969 572.742188 613.25 572.789062 C 613.292969 572.765625 613.316406 572.71875 613.359375 572.699219 C 613.292969 572.742188 613.207031 572.789062 613.140625 572.832031 C 613.183594 572.808594 613.207031 572.789062 613.25 572.789062 C 613.160156 572.808594 613.074219 572.855469 612.984375 572.875 C 613.027344 572.855469 613.074219 572.855469 613.117188 572.832031 C 613.027344 572.855469 612.941406 572.875 612.828125 572.875 C 612.875 572.875 612.917969 572.855469 612.984375 572.855469 C 612.894531 572.855469 612.808594 572.855469 612.71875 572.855469 C 612.785156 572.855469 612.828125 572.855469 612.875 572.875 C 612.785156 572.855469 612.71875 572.855469 612.628906 572.832031 C 612.695312 572.855469 612.761719 572.875 612.828125 572.898438 C 612.761719 572.875 612.695312 572.832031 612.628906 572.808594 C 612.71875 572.855469 612.785156 572.898438 612.851562 572.945312 C 612.808594 572.898438 612.761719 572.855469 612.695312 572.808594 C 612.785156 572.875 612.851562 572.964844 612.894531 573.054688 C 612.875 573.011719 612.851562 572.945312 612.808594 572.898438 C 612.875 573.011719 612.894531 573.144531 612.894531 573.28125 C 612.894531 573.210938 612.894531 573.167969 612.894531 573.101562 C 612.894531 573.234375 612.875 573.367188 612.828125 573.503906 C 612.851562 573.4375 612.875 573.390625 612.894531 573.324219 C 612.851562 573.4375 612.808594 573.527344 612.742188 573.617188 C 612.785156 573.546875 612.828125 573.503906 612.875 573.4375 C 612.828125 573.480469 612.785156 573.527344 612.742188 573.570312 C 612.808594 573.527344 612.875 573.457031 612.917969 573.414062 C 612.875 573.457031 612.828125 573.480469 612.785156 573.503906 C 612.851562 573.457031 612.941406 573.414062 613.007812 573.367188 C 612.960938 573.390625 612.917969 573.414062 612.894531 573.414062 C 612.984375 573.390625 613.074219 573.347656 613.160156 573.324219 C 613.117188 573.347656 613.074219 573.347656 613.007812 573.367188 C 613.09375 573.347656 613.183594 573.324219 613.292969 573.324219 C 613.25 573.324219 613.183594 573.347656 613.140625 573.347656 C 613.226562 573.347656 613.316406 573.347656 613.40625 573.347656 C 613.339844 573.347656 613.273438 573.347656 613.207031 573.324219 C 613.292969 573.347656 613.359375 573.347656 613.449219 573.367188 C 613.382812 573.347656 613.316406 573.324219 613.25 573.300781 C 613.316406 573.324219 613.382812 573.367188 613.449219 573.390625 C 613.359375 573.347656 613.273438 573.300781 613.207031 573.234375 C 613.25 573.28125 613.292969 573.324219 613.359375 573.367188 C 613.273438 573.28125 613.183594 573.191406 613.140625 573.078125 C 613.160156 573.121094 613.183594 573.191406 613.226562 573.234375 C 613.160156 573.078125 613.117188 572.921875 613.117188 572.765625 C 613.117188 572.832031 613.117188 572.875 613.117188 572.945312 C 613.117188 572.789062 613.140625 572.628906 613.183594 572.472656 C 613.160156 572.542969 613.140625 572.585938 613.117188 572.652344 C 613.160156 572.5625 613.207031 572.472656 613.25 572.382812 C 613.207031 572.453125 613.160156 572.496094 613.117188 572.5625 C 613.140625 572.542969 613.160156 572.496094 613.183594 572.472656 C 613.316406 572.339844 613.425781 572.136719 613.359375 571.9375 C 613.316406 571.757812 613.117188 571.625 612.941406 571.554688 C 612.695312 571.488281 612.410156 571.488281 612.164062 571.578125 C 611.898438 571.691406 611.632812 571.800781 611.457031 572.003906 Z M 611.457031 572.003906 " fill-opacity="1" fill-rule="nonzero"/><path fill="#ff52b4" d="M 597.886719 576.746094 C 597.730469 577.53125 597.664062 578.402344 598.105469 579.097656 C 598.328125 579.433594 598.570312 579.703125 598.949219 579.859375 C 599.480469 580.105469 600.097656 580.058594 600.652344 579.925781 C 601.5625 579.703125 602.445312 579.121094 602.777344 578.203125 C 603.023438 577.597656 603 576.835938 602.667969 576.253906 C 602.246094 575.5625 601.472656 575.25 600.675781 575.292969 C 599.679688 575.339844 598.417969 575.785156 598.039062 576.816406 C 597.753906 577.574219 598.171875 578.402344 598.96875 578.605469 C 599.699219 578.785156 600.566406 578.558594 601.164062 578.113281 C 601.496094 577.867188 601.738281 577.488281 601.671875 577.039062 C 601.582031 576.480469 600.984375 576.324219 600.519531 576.34375 C 600.011719 576.367188 599.457031 576.523438 599.035156 576.835938 C 598.859375 576.996094 598.683594 577.171875 598.636719 577.417969 C 598.617188 577.644531 598.660156 577.820312 598.816406 578 C 599.015625 578.246094 599.367188 578.292969 599.65625 578.292969 C 600.164062 578.292969 600.71875 578.113281 601.117188 577.820312 C 601.316406 577.6875 601.515625 577.464844 601.5625 577.21875 C 601.628906 576.792969 600.941406 576.835938 600.699219 576.859375 C 600.429688 576.90625 600.144531 576.972656 599.898438 577.128906 C 599.765625 577.21875 599.523438 577.351562 599.5 577.53125 C 599.5 577.574219 599.414062 577.710938 599.5 577.597656 C 599.457031 577.664062 599.480469 577.644531 599.546875 577.554688 C 599.414062 577.644531 599.5 577.597656 599.832031 577.398438 C 600.144531 577.242188 600.476562 577.195312 600.785156 577.285156 C 600.71875 577.261719 600.742188 577.261719 600.808594 577.308594 C 600.808594 577.308594 600.71875 577.195312 600.699219 577.195312 C 600.71875 577.242188 600.742188 577.261719 600.765625 577.308594 C 600.699219 577.21875 600.675781 577.105469 600.675781 576.996094 C 600.675781 577.039062 600.675781 577.082031 600.675781 577.128906 C 600.675781 577.082031 600.675781 577.0625 600.699219 577.039062 C 600.699219 577.015625 600.742188 576.925781 600.699219 577.015625 C 600.675781 577.0625 600.675781 577.0625 600.699219 577.015625 C 600.675781 577.039062 600.652344 577.0625 600.609375 577.105469 C 600.386719 577.261719 600.144531 577.328125 599.878906 577.375 C 599.699219 577.398438 599.613281 577.398438 599.457031 577.398438 C 599.300781 577.375 599.480469 577.398438 599.480469 577.417969 C 599.480469 577.441406 599.390625 577.328125 599.457031 577.417969 C 599.480469 577.464844 599.523438 577.488281 599.546875 577.507812 C 599.523438 577.464844 599.5 577.441406 599.480469 577.398438 C 599.546875 577.507812 599.589844 577.644531 599.589844 577.777344 C 599.589844 577.734375 599.589844 577.6875 599.589844 577.644531 C 599.589844 577.710938 599.589844 577.753906 599.566406 577.820312 C 599.566406 577.867188 599.546875 577.890625 599.523438 577.933594 C 599.5 577.980469 599.566406 577.890625 599.523438 577.910156 C 599.5 577.933594 599.414062 578 599.5 577.933594 C 599.523438 577.910156 599.566406 577.890625 599.589844 577.867188 C 599.65625 577.820312 599.65625 577.820312 599.632812 577.84375 C 599.589844 577.867188 599.613281 577.867188 599.679688 577.820312 C 599.765625 577.777344 599.855469 577.734375 599.964844 577.734375 C 600.054688 577.6875 600.164062 577.664062 600.253906 577.664062 C 600.34375 577.664062 600.363281 577.664062 600.296875 577.664062 C 600.320312 577.664062 600.496094 577.6875 600.386719 577.664062 C 600.429688 577.664062 600.519531 577.710938 600.453125 577.664062 C 600.429688 577.644531 600.410156 577.644531 600.363281 577.621094 C 600.410156 577.644531 600.429688 577.664062 600.386719 577.621094 C 600.277344 577.53125 600.1875 577.441406 600.097656 577.308594 C 600.121094 577.351562 600.144531 577.375 600.164062 577.417969 C 600.054688 577.242188 600.011719 577.039062 600.011719 576.816406 C 600.011719 576.859375 600.011719 576.90625 600.011719 576.949219 C 600.011719 576.792969 600.054688 576.660156 600.097656 576.523438 C 600.121094 576.5 600.121094 576.457031 600.144531 576.433594 C 600.164062 576.367188 600.097656 576.5 600.144531 576.433594 C 600.1875 576.367188 600.230469 576.324219 600.277344 576.253906 C 600.34375 576.167969 600.253906 576.300781 600.230469 576.300781 C 600.253906 576.300781 600.296875 576.253906 600.296875 576.253906 C 600.386719 576.167969 600.210938 576.300781 600.210938 576.300781 C 600.210938 576.277344 600.410156 576.1875 600.210938 576.300781 C 600.054688 576.367188 600.144531 576.324219 600.1875 576.324219 C 600.296875 576.277344 599.921875 576.414062 600.03125 576.367188 C 600.144531 576.34375 599.746094 576.414062 599.878906 576.390625 C 599.964844 576.367188 600.054688 576.390625 599.765625 576.390625 C 599.789062 576.390625 599.832031 576.390625 599.855469 576.390625 C 599.964844 576.390625 599.765625 576.390625 599.746094 576.390625 C 599.789062 576.367188 599.878906 576.414062 599.921875 576.414062 C 600.054688 576.433594 599.8125 576.367188 599.878906 576.414062 C 599.898438 576.414062 599.945312 576.433594 599.964844 576.433594 C 600.011719 576.457031 600.078125 576.480469 600.121094 576.5 C 600.144531 576.523438 600.253906 576.546875 600.121094 576.5 C 600.144531 576.5 600.164062 576.523438 600.1875 576.546875 C 600.230469 576.570312 600.277344 576.613281 600.320312 576.660156 C 600.429688 576.746094 600.519531 576.859375 600.585938 576.972656 C 600.566406 576.925781 600.542969 576.90625 600.519531 576.859375 C 600.742188 577.21875 600.832031 577.621094 600.808594 578.023438 C 600.808594 577.980469 600.808594 577.933594 600.808594 577.890625 C 600.785156 578.179688 600.71875 578.472656 600.585938 578.738281 C 600.566406 578.808594 600.542969 578.828125 600.585938 578.761719 C 600.566406 578.808594 600.542969 578.828125 600.519531 578.875 C 600.476562 578.941406 600.429688 578.984375 600.386719 579.054688 C 600.363281 579.074219 600.277344 579.1875 600.34375 579.097656 C 600.429688 579.03125 600.34375 579.097656 600.320312 579.121094 C 600.296875 579.140625 600.253906 579.164062 600.230469 579.1875 C 600.121094 579.277344 600.363281 579.097656 600.277344 579.164062 C 600.230469 579.1875 600.121094 579.230469 600.277344 579.164062 C 600.476562 579.074219 600.253906 579.164062 600.253906 579.164062 C 600.253906 579.164062 600.542969 579.074219 600.386719 579.121094 C 600.585938 579.074219 600.632812 579.074219 600.542969 579.074219 C 600.496094 579.074219 600.519531 579.074219 600.609375 579.074219 C 600.808594 579.054688 600.632812 579.074219 600.585938 579.074219 C 600.609375 579.074219 600.785156 579.097656 600.675781 579.074219 C 600.519531 579.03125 600.785156 579.121094 600.699219 579.074219 C 600.652344 579.054688 600.632812 579.054688 600.585938 579.03125 C 600.566406 579.007812 600.519531 579.007812 600.496094 578.984375 C 600.363281 578.917969 600.542969 579.03125 600.496094 578.984375 C 600.453125 578.941406 600.386719 578.894531 600.320312 578.851562 C 600.210938 578.738281 600.097656 578.628906 600.011719 578.492188 C 600.03125 578.539062 600.054688 578.5625 600.078125 578.605469 C 599.8125 578.179688 599.722656 577.664062 599.746094 577.152344 C 599.746094 577.195312 599.746094 577.242188 599.746094 577.285156 C 599.765625 577.015625 599.789062 576.769531 599.855469 576.5 C 599.945312 576.078125 599.234375 576.121094 598.992188 576.144531 C 598.726562 576.1875 598.4375 576.253906 598.195312 576.414062 C 598.152344 576.433594 597.90625 576.570312 597.886719 576.746094 Z M 597.886719 576.746094 " fill-opacity="1" fill-rule="nonzero"/><path fill="#ff52b4" d="M 599.191406 578.402344 C 599.257812 578.558594 599.347656 578.695312 599.414062 578.851562 C 599.433594 578.894531 599.457031 578.941406 599.480469 578.984375 C 599.546875 579.054688 599.632812 579.097656 599.722656 579.121094 C 599.789062 579.140625 599.855469 579.164062 599.945312 579.164062 C 600.078125 579.1875 600.1875 579.1875 600.320312 579.164062 C 600.519531 579.140625 600.699219 579.097656 600.875 579.007812 C 600.984375 578.964844 601.097656 578.894531 601.207031 578.808594 C 601.296875 578.738281 601.363281 578.671875 601.429688 578.582031 C 601.539062 578.359375 601.671875 578.113281 601.78125 577.890625 C 601.847656 577.820312 601.871094 577.734375 601.847656 577.644531 C 601.847656 577.554688 601.828125 577.488281 601.761719 577.417969 C 601.695312 577.351562 601.605469 577.308594 601.515625 577.285156 C 601.40625 577.242188 601.296875 577.21875 601.183594 577.21875 C 601.097656 577.21875 601.007812 577.21875 600.917969 577.21875 C 600.71875 577.242188 600.542969 577.285156 600.363281 577.375 C 600.277344 577.417969 600.210938 577.464844 600.121094 577.507812 C 599.988281 577.597656 599.878906 577.6875 599.8125 577.820312 C 599.699219 578.046875 599.566406 578.292969 599.457031 578.515625 C 600.121094 578.425781 600.785156 578.359375 601.472656 578.269531 C 601.40625 578.113281 601.316406 577.980469 601.25 577.820312 C 601.230469 577.734375 601.183594 577.664062 601.097656 577.621094 C 601.03125 577.554688 600.941406 577.507812 600.832031 577.488281 C 600.71875 577.464844 600.585938 577.441406 600.476562 577.464844 C 600.34375 577.464844 600.1875 577.488281 600.054688 577.53125 C 599.964844 577.554688 599.878906 577.597656 599.789062 577.621094 C 599.632812 577.6875 599.5 577.777344 599.367188 577.890625 C 599.324219 577.933594 599.28125 578 599.234375 578.046875 C 599.191406 578.179688 599.167969 578.269531 599.191406 578.402344 Z M 599.191406 578.402344 " fill-opacity="1" fill-rule="nonzero"/><path fill="#ff52b4" d="M 603.375 574.421875 C 600.144531 573.257812 596.46875 574.21875 594.1875 576.792969 C 593.171875 577.933594 592.484375 579.34375 592.175781 580.84375 C 591.863281 582.363281 592.019531 584.132812 592.925781 585.429688 C 593.835938 586.707031 595.316406 587.355469 596.800781 587.601562 C 598.4375 587.871094 600.1875 587.710938 601.78125 587.308594 C 603.441406 586.882812 605.101562 586.125 606.476562 585.050781 C 607.714844 584.085938 608.753906 582.722656 608.886719 581.113281 C 609 579.613281 608.402344 578.046875 607.382812 576.972656 C 606.230469 575.742188 604.683594 575.046875 603.066406 574.667969 C 602.691406 574.578125 602.335938 574.511719 601.960938 574.464844 C 601.449219 574.398438 600.832031 574.621094 600.609375 575.113281 C 600.410156 575.605469 600.808594 576.007812 601.25 576.054688 C 601.582031 576.097656 601.914062 576.144531 602.226562 576.210938 C 602.3125 576.234375 602.402344 576.253906 602.492188 576.277344 C 602.777344 576.34375 602.3125 576.234375 602.601562 576.300781 C 602.777344 576.34375 602.957031 576.414062 603.109375 576.457031 C 603.421875 576.570312 603.730469 576.679688 604.019531 576.835938 C 604.019531 576.835938 604.285156 576.972656 604.128906 576.90625 C 604.21875 576.949219 604.285156 576.996094 604.371094 577.039062 C 604.527344 577.128906 604.683594 577.242188 604.816406 577.328125 C 604.949219 577.417969 605.082031 577.53125 605.214844 577.644531 C 605.28125 577.6875 605.324219 577.753906 605.390625 577.800781 C 605.589844 577.980469 605.300781 577.6875 605.480469 577.890625 C 605.699219 578.136719 605.921875 578.402344 606.097656 578.695312 C 606.429688 579.210938 606.628906 579.703125 606.742188 580.394531 C 606.742188 580.441406 606.761719 580.507812 606.761719 580.550781 C 606.808594 580.796875 606.761719 580.417969 606.785156 580.664062 C 606.785156 580.820312 606.785156 581 606.785156 581.15625 C 606.785156 581.289062 606.761719 581.425781 606.742188 581.582031 C 606.71875 581.671875 606.71875 581.738281 606.695312 581.828125 C 606.742188 581.691406 606.675781 581.917969 606.652344 581.941406 C 606.585938 582.097656 606.519531 582.253906 606.453125 582.410156 C 606.410156 582.476562 606.363281 582.566406 606.34375 582.632812 C 606.410156 582.5 606.34375 582.632812 606.320312 582.65625 C 606.121094 582.945312 605.921875 583.214844 605.679688 583.460938 C 605.480469 583.664062 605.8125 583.347656 605.613281 583.527344 C 605.546875 583.59375 605.480469 583.640625 605.414062 583.707031 C 605.300781 583.796875 605.191406 583.886719 605.082031 583.976562 C 604.949219 584.085938 604.816406 584.175781 604.660156 584.289062 C 604.617188 584.3125 604.570312 584.355469 604.527344 584.378906 C 604.4375 584.445312 604.4375 584.445312 604.527344 584.378906 C 604.460938 584.421875 604.417969 584.445312 604.351562 584.492188 C 604.039062 584.667969 603.730469 584.847656 603.398438 585.003906 C 603.242188 585.09375 603.066406 585.160156 602.910156 585.230469 C 602.84375 585.25 602.757812 585.296875 602.691406 585.320312 C 602.625 585.339844 602.578125 585.363281 602.511719 585.386719 C 602.625 585.339844 602.625 585.339844 602.511719 585.386719 C 602.179688 585.496094 601.828125 585.609375 601.496094 585.699219 C 601.339844 585.742188 601.183594 585.789062 601.03125 585.8125 C 600.941406 585.832031 600.832031 585.855469 600.742188 585.878906 C 600.699219 585.878906 600.296875 585.945312 600.542969 585.921875 C 600.1875 585.96875 599.832031 586.011719 599.480469 586.035156 C 599.324219 586.035156 599.148438 586.058594 598.992188 586.058594 C 598.902344 586.058594 598.792969 586.058594 598.703125 586.058594 C 598.683594 586.058594 598.351562 586.058594 598.484375 586.058594 C 598.636719 586.058594 598.371094 586.058594 598.371094 586.058594 C 598.285156 586.058594 598.21875 586.035156 598.128906 586.035156 C 597.996094 586.011719 597.863281 586.011719 597.730469 585.988281 C 597.574219 585.96875 597.398438 585.945312 597.242188 585.898438 C 597.15625 585.878906 597.089844 585.855469 597 585.855469 C 597.222656 585.898438 596.957031 585.832031 596.933594 585.832031 C 596.644531 585.742188 596.359375 585.632812 596.09375 585.519531 C 596.070312 585.519531 595.847656 585.386719 596.003906 585.476562 C 595.9375 585.429688 595.871094 585.386719 595.804688 585.339844 C 595.671875 585.25 595.539062 585.160156 595.40625 585.050781 C 595.339844 585.003906 595.296875 584.9375 595.230469 584.894531 C 595.03125 584.738281 595.316406 585.003906 595.164062 584.824219 C 595.074219 584.714844 594.984375 584.625 594.898438 584.511719 C 594.675781 584.222656 594.542969 583.976562 594.453125 583.707031 C 594.34375 583.394531 594.253906 583.082031 594.210938 582.765625 C 594.167969 582.410156 594.144531 582.207031 594.167969 581.804688 C 594.1875 581.46875 594.210938 581.132812 594.277344 580.820312 C 594.300781 580.6875 594.34375 580.53125 594.367188 580.394531 C 594.320312 580.550781 594.410156 580.285156 594.410156 580.285156 C 594.433594 580.195312 594.476562 580.082031 594.5 579.992188 C 594.609375 579.703125 594.71875 579.410156 594.851562 579.121094 C 594.917969 578.984375 594.984375 578.851562 595.074219 578.695312 C 595.117188 578.628906 595.164062 578.539062 595.207031 578.472656 C 595.117188 578.628906 595.25 578.382812 595.273438 578.382812 C 595.472656 578.066406 595.695312 577.777344 595.9375 577.507812 C 595.980469 577.441406 596.046875 577.375 596.113281 577.328125 C 596.160156 577.285156 596.179688 577.242188 596.226562 577.21875 C 596.160156 577.285156 596.136719 577.285156 596.203125 577.242188 C 596.335938 577.105469 596.46875 576.996094 596.601562 576.882812 C 596.734375 576.769531 596.867188 576.679688 597 576.570312 C 597.066406 576.523438 597.132812 576.480469 597.199219 576.433594 C 597.289062 576.367188 597.289062 576.367188 597.175781 576.433594 C 597.222656 576.414062 597.265625 576.367188 597.308594 576.34375 C 597.621094 576.167969 597.953125 575.988281 598.304688 575.851562 C 598.0625 575.941406 598.351562 575.851562 598.371094 575.832031 C 598.484375 575.785156 598.617188 575.761719 598.726562 575.71875 C 598.902344 575.675781 599.082031 575.628906 599.257812 575.585938 C 599.546875 575.515625 599.035156 575.605469 599.347656 575.5625 C 599.457031 575.539062 599.589844 575.539062 599.699219 575.515625 C 599.878906 575.496094 600.054688 575.496094 600.253906 575.496094 C 600.34375 575.496094 600.429688 575.496094 600.519531 575.496094 C 600.296875 575.496094 600.585938 575.496094 600.609375 575.496094 C 600.832031 575.515625 601.03125 575.539062 601.25 575.5625 C 601.429688 575.585938 601.605469 575.628906 601.78125 575.675781 C 601.582031 575.628906 601.871094 575.695312 601.894531 575.71875 C 602.003906 575.761719 602.113281 575.785156 602.246094 575.832031 C 602.734375 576.007812 603.398438 575.875 603.707031 575.429688 C 603.953125 575.09375 603.863281 574.601562 603.375 574.421875 Z M 603.375 574.421875 " fill-opacity="1" fill-rule="nonzero"/><path stroke-linecap="butt" transform="matrix(0.411044, 0, 0, 0.411044, 548.814891, 337.872982)" fill="none" stroke-linejoin="miter" d="M 137.686517 19.553058 C 139.834248 19.553058 141.506816 19.895174 142.675714 20.569904 C 143.854115 21.216123 144.443315 22.156943 144.443315 23.38286 C 144.443315 23.905538 144.291264 24.589771 143.996663 25.416552 C 143.66405 26.110288 143.217398 26.747005 142.637701 27.326702 C 142.096017 27.877889 141.582842 28.286528 141.098177 28.562122 C 140.651526 28.818709 140.328416 29.046787 140.128848 29.246355 C 138.494292 30.168168 137.173343 31.194517 136.146993 32.325402 C 135.120644 33.446783 134.246347 35.185875 133.514598 37.542677 L 114.888263 103.865735 C 114.489127 105.186684 114.289559 106.469621 114.289559 107.695538 C 114.289559 108.921455 114.460617 109.947804 114.812237 110.774585 C 115.192366 111.601366 115.724547 112.475663 116.427786 113.397477 C 117.359103 114.727929 117.815258 115.801795 117.815258 116.628576 C 117.815258 116.828144 117.720226 117.341318 117.520658 118.1681 C 117.121522 119.593584 116.190206 120.600927 114.736211 121.171121 C 113.310726 121.722308 111.162996 121.997902 108.283516 121.997902 L 72.152227 121.997902 C 70.004497 121.997902 68.331928 121.646283 67.16303 120.952547 C 65.984629 120.220798 65.395429 119.241965 65.395429 118.016048 C 65.395429 117.388834 65.547481 116.714105 65.842081 115.991859 C 66.241217 114.860975 66.906443 114.005684 67.83776 113.397477 C 68.759573 112.770264 69.320264 112.409141 69.529335 112.314108 C 71.173394 111.287759 72.51335 110.232901 73.539699 109.159035 C 74.566048 108.075667 75.430842 106.317569 76.134081 103.865735 L 94.912468 37.542677 C 95.311604 36.212224 95.511172 34.938791 95.511172 33.712874 C 95.511172 32.581989 95.340114 31.631666 94.988494 30.852401 C 94.636875 30.082639 94.15221 29.179832 93.524996 28.153483 C 92.59368 26.823031 92.128021 25.749165 92.128021 24.922384 C 92.128021 24.627784 92.232557 24.05759 92.432125 23.230809 C 92.85977 21.909859 93.762577 20.969039 95.140546 20.417852 C 96.518515 19.838155 98.637735 19.553058 101.517215 19.553058 Z M 296.713607 19.553058 C 298.87084 19.553058 300.533906 19.895174 301.712307 20.569904 C 302.881204 21.216123 303.470405 22.156943 303.470405 23.38286 C 303.470405 23.905538 303.327856 24.589771 303.023753 25.416552 C 302.719649 26.338366 302.282501 27.022598 301.712307 27.478754 C 301.161119 27.925405 300.315332 28.514606 299.19395 29.246355 C 297.540388 30.168168 296.228942 31.194517 295.250109 32.325402 C 294.271276 33.446783 293.434991 35.185875 292.731752 37.542677 L 273.953365 103.713683 C 273.554229 105.034632 273.354662 106.317569 273.354662 107.543486 C 273.354662 108.664867 273.535223 109.61519 273.877339 110.394456 C 274.228959 111.145211 274.723127 112.038515 275.35034 113.064864 C 275.749476 113.587542 276.101096 114.138729 276.395696 114.718426 C 276.718806 115.269614 276.889864 115.849311 276.889864 116.476524 C 276.889864 116.676092 276.785328 117.189267 276.585761 118.016048 C 276.158115 119.3465 275.198289 120.325333 273.696778 120.952547 C 272.214274 121.55125 270.104556 121.84585 267.348619 121.84585 L 231.179317 121.84585 C 229.031586 121.84585 227.36852 121.503734 226.19012 120.800495 C 225.011719 120.068746 224.422518 119.08041 224.422518 117.835486 C 224.422518 117.22728 224.57457 116.571557 224.86917 115.839808 C 225.201783 115.117562 225.638932 114.480845 226.19012 113.929658 C 226.760314 113.349961 227.273488 112.941322 227.729643 112.684735 C 228.176295 112.43765 228.518412 112.209573 228.746489 112.010005 C 230.371542 111.088191 231.692491 110.061842 232.71884 108.930958 C 233.745189 107.800073 234.62899 106.060982 235.351236 103.713683 L 247.030708 62.175055 L 207.183655 111.52534 C 203.90504 115.526201 201.263141 118.282138 199.257959 119.783649 C 197.26228 121.266153 194.981505 121.997902 192.425135 121.997902 C 189.973301 121.997902 188.044145 121.209134 186.64717 119.631597 C 185.269201 118.035054 184.014775 115.326633 182.893393 111.52534 L 168.429474 64.018682 L 157.054105 103.865735 C 156.654969 105.186684 156.455401 106.469621 156.455401 107.695538 C 156.455401 108.921455 156.626459 109.947804 156.978079 110.774585 C 157.329698 111.601366 157.861879 112.475663 158.593628 113.397477 C 159.515442 114.727929 159.9811 115.801795 159.9811 116.628576 C 159.9811 116.828144 159.876565 117.341318 159.676997 118.1681 C 159.258854 119.593584 158.318034 120.600927 156.86404 121.171121 C 155.438555 121.722308 153.300328 121.997902 150.439855 121.997902 L 137.677014 121.997902 C 135.51978 121.997902 133.856714 121.646283 132.678314 120.952547 C 131.499913 120.220798 130.910712 119.241965 130.910712 118.016048 C 130.910712 117.388834 131.062764 116.714105 131.366868 115.991859 C 131.766003 114.860975 132.43123 114.005684 133.353043 113.397477 C 134.28436 112.770264 134.845051 112.409141 135.044618 112.314108 C 136.698181 111.287759 138.038137 110.232901 139.064486 109.159035 C 140.090835 108.075667 140.955629 106.317569 141.658868 103.865735 L 160.427752 37.390625 L 157.994925 29.246355 C 157.462743 27.716334 157.206156 26.224327 157.206156 24.770332 C 157.206156 22.945712 157.785853 21.615259 158.964254 20.788478 C 160.142655 19.9712 161.967276 19.553058 164.447619 19.553058 L 188.262719 19.553058 C 191.341767 19.553058 193.613039 20.227787 195.095543 21.577246 C 196.597054 22.907699 197.813468 25.207481 198.735281 28.495599 L 214.130518 79.56597 L 255.821198 27.706831 C 258.4726 24.418713 261.076485 22.242473 263.632855 21.168607 C 266.208231 20.094742 269.600885 19.553058 273.810817 19.553058 Z M 384.704035 103.865735 C 384.285892 105.186684 384.067318 106.517137 384.067318 107.838086 C 384.067318 108.968971 384.21937 109.919294 384.523473 110.698559 C 384.846583 111.468321 385.179196 112.095534 385.530816 112.570696 C 385.910945 113.026851 386.148526 113.349961 386.243558 113.549529 C 387.269907 114.575878 387.783082 115.602227 387.783082 116.628576 C 387.783082 116.828144 387.678546 117.341318 387.450469 118.1681 C 387.051333 119.593584 386.148526 120.600927 384.742048 121.171121 C 383.364079 121.722308 381.254361 121.997902 378.403392 121.997902 L 341.929986 121.997902 C 339.782255 121.997902 338.11919 121.646283 336.940789 120.952547 C 335.762388 120.220798 335.173188 119.241965 335.173188 118.016048 C 335.173188 117.388834 335.325239 116.714105 335.629343 115.991859 C 335.923943 115.165078 336.351589 114.528362 336.902776 114.072206 C 337.482473 113.625555 338.280745 113.08387 339.307094 112.456657 C 340.960656 111.534843 342.300612 110.508494 343.326961 109.37761 C 344.35331 108.256228 345.218104 106.412601 345.91184 103.865735 L 349.931708 90.608726 L 325.936046 90.608726 L 321.764127 99.389712 C 320.044042 103.171999 319.179248 106.137007 319.179248 108.294241 C 319.179248 109.548668 319.378816 110.55601 319.777951 111.335276 C 320.205597 112.086031 320.813804 112.874799 321.621578 113.70158 C 322.343824 114.528362 322.828489 115.231601 323.085076 115.801795 C 323.33216 116.352982 323.36067 117.094234 323.161102 118.016048 C 322.752463 119.546068 321.906675 120.600927 320.604733 121.171121 C 319.3313 121.722308 317.307111 121.997902 314.560677 121.997902 L 291.648384 121.997902 C 289.272576 121.997902 287.466962 121.560753 286.241045 120.686456 C 285.015128 119.812159 284.397418 118.662268 284.397418 117.22728 C 284.397418 115.573717 284.986618 114.271774 286.165019 113.321451 C 287.34342 112.352121 289.111021 111.297263 291.458319 110.166378 C 294.537366 108.617351 297.008207 107.106337 298.861337 105.623833 C 300.714467 104.122322 302.301507 102.050618 303.63196 99.389712 L 331.010772 42.607899 C 335.211201 33.798403 340.152882 27.431237 345.835814 23.496899 C 351.547257 19.543555 359.054811 17.566882 368.367978 17.566882 C 378.84054 17.566882 386.937294 19.695606 392.667743 23.943551 C 398.426702 28.200999 401.306181 34.121513 401.306181 41.714596 C 401.306181 44.888675 400.793007 48.16729 399.766658 51.550441 Z M 354.550278 75.241999 L 362.704052 48.16729 C 363.103188 46.941373 363.302755 45.66794 363.302755 44.337488 C 363.302755 42.389325 362.761071 40.925827 361.687206 39.946994 C 360.613341 38.968161 359.092824 38.483497 357.144661 38.483497 C 354.692827 38.483497 352.583109 39.205742 350.834515 40.659737 C 349.104926 42.085222 347.365835 44.641591 345.61724 48.319342 L 332.996948 75.241999 Z M 443.586062 122.938722 C 436.724728 122.938722 430.509614 121.427708 424.921714 118.396177 C 419.343316 115.364646 414.895804 110.90763 411.588679 105.025129 C 408.310064 99.114119 406.675508 92.053217 406.675508 83.842424 C 406.675508 77.589298 407.749373 70.613925 409.897103 62.92581 C 414.629713 46.532734 422.042234 34.948294 432.134667 28.191496 C 442.246106 21.406188 453.041778 18.013534 464.502676 18.013534 C 474.965735 18.013534 484.411948 21.805324 492.822309 29.388903 L 497.44088 24.922384 C 499.997249 22.774654 502.192496 21.292149 504.045626 20.493878 C 505.898756 19.667097 508.05599 19.248954 510.507824 19.248954 C 513.187735 19.248954 515.335466 19.895174 516.970022 21.168607 C 518.623584 22.44204 519.450366 24.162125 519.450366 26.309856 C 519.450366 27.136637 519.279307 28.11547 518.956197 29.246355 L 513.43482 48.623445 C 512.40847 51.902061 511.192057 54.211346 509.795082 55.570308 C 508.417113 56.891258 506.554479 57.556484 504.197678 57.556484 C 501.745844 57.556484 499.569604 56.948277 497.668957 55.72236 C 495.758807 54.467933 493.582567 52.25368 491.130733 49.070097 C 487.852118 44.765133 484.944129 41.724099 482.416269 39.946994 C 479.916919 38.14138 477.189491 37.238573 474.233986 37.238573 C 469.596409 37.238573 465.205916 39.585872 461.053003 44.261462 C 456.890587 48.918046 453.288862 56.682186 450.238325 67.544381 C 448.280659 74.633792 447.301826 80.725364 447.301826 85.838103 C 447.301826 91.292959 448.356685 95.436368 450.456899 98.268331 C 452.566617 101.071785 455.503115 102.46876 459.285402 102.46876 C 462.564017 102.46876 465.10138 101.708501 466.906994 100.178481 C 468.712608 98.629454 470.12859 95.949542 471.154939 92.148249 L 472.200295 88.318447 C 472.732476 86.265749 472.989063 84.868774 472.989063 84.146528 C 472.989063 82.920611 472.703966 82.055817 472.124269 81.552145 C 471.573081 81.029468 470.622758 80.468777 469.273299 79.86057 L 463.903973 77.836382 C 461.547171 76.933575 460.378274 75.241999 460.378274 72.771159 C 460.378274 72.06792 460.42579 71.507229 460.520822 71.079583 C 460.919958 69.749131 461.66121 68.789304 462.735075 68.181098 C 463.818444 67.563387 465.481509 67.249781 467.733775 67.249781 L 514.185575 67.392329 C 517.597235 67.392329 519.298314 68.475698 519.298314 70.623428 C 519.298314 71.022564 519.184275 71.640274 518.956197 72.467055 C 518.557062 74.016082 517.891835 75.261006 516.970022 76.182819 C 516.038705 77.085626 514.717756 77.997937 512.988168 78.929253 L 508.9683 81.257545 C 507.941951 81.856249 507.162686 82.445449 506.640008 83.015643 C 506.136337 83.566831 505.784718 84.260567 505.58515 85.087348 L 497.44088 113.549529 C 496.41453 116.932679 495.264639 119.184945 493.981703 120.306327 C 492.70827 121.437211 491.140237 121.997902 489.287106 121.997902 L 482.834411 121.997902 C 480.373074 121.997902 478.348886 121.484728 476.74284 120.458379 C 475.165303 119.432029 473.86336 117.426847 472.837011 114.452336 L 471.297487 110.023829 C 463.913476 118.633758 454.676334 122.938722 443.586062 122.938722 Z M 614.967354 19.553058 C 618.740137 19.553058 621.686139 20.379839 623.786353 22.033401 C 625.896071 23.658454 626.941426 25.91072 626.941426 28.7902 C 626.941426 30.215684 626.741858 31.593653 626.342723 32.924106 L 622.322855 47.22647 C 621.619616 50.010917 620.574261 51.940074 619.167782 53.013939 C 617.789814 54.087804 615.832148 54.629488 613.275778 54.629488 C 610.795435 54.629488 608.866278 54.087804 607.48831 53.013939 C 606.110341 51.940074 605.064985 50.172472 604.333237 47.720638 L 601.890906 38.930149 C 601.368228 37.077018 600.741015 35.851101 600.018769 35.252398 C 599.31553 34.625184 597.937561 34.311578 595.884863 34.311578 L 579.738871 34.311578 L 572.041253 61.69039 L 578.798051 61.69039 C 579.5298 61.69039 580.49913 61.177215 581.725047 60.150866 L 586.951825 55.570308 C 588.500852 54.211346 589.840807 53.242016 590.971692 52.63381 C 592.093073 52.016099 593.471042 51.702493 595.096095 51.702493 C 596.949225 51.702493 598.469742 52.187158 599.63864 53.165991 C 600.817041 54.144823 601.406241 55.389747 601.406241 56.919767 C 601.406241 57.347413 601.311209 57.974626 601.111641 58.801407 L 594.801495 80.164674 C 594.193288 82.41694 593.147932 84.080005 591.646421 85.163374 C 590.163917 86.237239 588.548368 86.778923 586.799773 86.778923 C 583.920294 86.778923 581.76306 85.286916 580.337575 82.302901 L 577.714683 76.933575 C 577.011444 75.384548 575.880559 74.605283 574.331532 74.605283 L 568.363502 74.605283 L 559.268909 107.239382 L 572.792009 107.239382 C 574.740171 107.239382 576.460256 106.84975 577.933257 106.079988 C 579.434768 105.300723 581.069324 103.951264 582.817919 102.022108 L 592.017048 91.844146 C 593.67061 90.114558 595.238643 88.869634 596.711644 88.090369 C 598.213155 87.311104 600.047279 86.921472 602.195009 86.921472 C 604.447275 86.921472 606.290902 87.434646 607.716387 88.460995 C 609.170382 89.487344 609.892628 91.026868 609.892628 93.079566 C 609.892628 93.906347 609.731073 94.88518 609.407963 96.016065 L 604.941443 111.52534 C 603.810559 115.431169 602.1665 118.158596 600.018769 119.707623 C 597.861535 121.237644 594.744475 121.997902 590.667589 121.997902 L 517.283629 121.997902 C 515.135898 121.997902 513.472832 121.646283 512.294432 120.952547 C 511.116031 120.220798 510.52683 119.241965 510.52683 118.016048 C 510.52683 117.388834 510.678882 116.714105 510.973482 115.991859 C 511.382121 114.860975 512.037844 114.005684 512.969161 113.397477 C 513.890975 112.770264 514.461169 112.409141 514.660736 112.314108 C 516.314299 111.287759 517.654255 110.232901 518.680604 109.159035 C 519.706953 108.075667 520.562244 106.317569 521.265483 103.865735 L 540.195922 37.542677 C 540.595057 36.212224 540.794625 34.986307 540.794625 33.864926 C 540.794625 32.639009 540.623567 31.61266 540.271948 30.785878 C 539.920328 29.959097 539.378644 29.075297 538.656398 28.153483 C 537.725081 26.823031 537.268926 25.749165 537.268926 24.922384 C 537.268926 24.627784 537.363958 24.05759 537.563526 23.230809 C 537.991172 21.909859 538.922489 20.969039 540.347973 20.417852 C 541.773458 19.838155 543.873673 19.553058 546.65812 19.553058 Z M 642.165604 19.857161 C 642.688282 16.474011 643.667115 14.098202 645.0926 12.720234 C 646.518085 11.342265 648.82737 10.648529 652.00145 10.648529 L 663.23427 10.648529 C 665.382001 10.648529 667.102086 11.171207 668.375519 12.197556 C 669.677462 13.195395 670.333185 14.468829 670.333185 16.027359 C 670.333185 17.452843 669.715475 19.191935 668.489558 21.244633 L 656.467969 41.714596 C 655.346588 43.558223 654.168187 44.831656 652.94227 45.506385 C 651.716353 46.152605 650.176829 46.475715 648.323699 46.475715 L 642.954373 46.475715 C 641.395843 46.475715 640.207939 46.038566 639.381157 45.164269 C 638.582886 44.289972 638.335802 43.083061 638.630402 41.562544 Z M 715.083906 18.612238 C 720.823858 18.612238 726.117159 19.315477 730.97331 20.721955 C 735.848469 22.090421 740.809156 24.276164 745.845869 27.250676 L 749.371568 24.32368 C 751.851912 22.366015 753.8761 21.045065 755.453637 20.341826 C 757.059683 19.61958 758.884304 19.248954 760.937002 19.248954 C 763.388836 19.248954 765.336998 19.790639 766.762483 20.864504 C 768.187968 21.947872 768.900711 23.506402 768.900711 25.559101 C 768.900711 26.385882 768.748659 27.250676 768.454059 28.153483 L 761.991861 49.412214 C 761.288622 51.864048 760.385814 53.603139 759.283439 54.629488 C 758.209574 55.655837 756.594025 56.169012 754.446294 56.169012 C 752.184525 56.169012 750.207853 55.475276 748.506774 54.106811 C 746.834205 52.700332 744.20181 49.849362 740.619091 45.544398 C 737.017366 41.439002 733.748254 38.540516 730.821259 36.867947 C 727.91327 35.166869 724.929255 34.311578 721.850207 34.311578 C 719.588438 34.311578 717.687792 35.062333 716.138765 36.563844 C 714.608744 38.046348 713.848486 39.861465 713.848486 42.009196 C 713.848486 44.46103 715.074403 46.741805 717.526237 48.84202 C 720.00658 50.951737 723.864893 53.593636 729.09167 56.767716 C 734.422984 59.951298 738.832484 62.830778 742.310667 65.406154 C 745.78885 67.962523 748.763361 71.136603 751.215195 74.947399 C 753.695539 78.729685 754.930959 83.082166 754.930959 88.014343 C 754.930959 91.197926 754.417785 94.372006 753.391435 97.555589 C 750.911092 105.737872 746.130966 111.962489 739.041555 116.219937 C 731.980653 120.477385 723.731847 122.596606 714.295138 122.596606 C 707.234236 122.596606 701.294716 121.788831 696.457571 120.163778 C 691.648935 118.510216 686.735764 115.744775 681.699051 111.857953 L 676.177673 116.476524 C 673.602297 118.633758 671.483076 120.097256 669.829514 120.876521 C 668.204461 121.627276 666.370337 121.997902 664.317639 121.997902 C 661.960837 121.997902 660.079197 121.437211 658.682222 120.306327 C 657.304254 119.184945 656.610518 117.645422 656.610518 115.687756 C 656.610518 114.661407 656.829092 113.587542 657.256737 112.456657 L 664.802304 89.553867 C 665.600575 86.873956 666.712454 84.973309 668.147442 83.842424 C 669.591933 82.721043 671.445063 82.150849 673.697329 82.150849 C 676.054131 82.150849 678.182855 82.97763 680.083501 84.631193 C 681.984148 86.265749 684.483498 89.230757 687.562545 93.535721 C 690.84116 98.268331 693.882195 101.556449 696.685648 103.40958 C 699.517611 105.2342 702.881756 106.156014 706.787584 106.156014 C 709.543522 106.156014 711.653239 105.718865 713.135743 104.835065 C 714.637254 103.960767 715.701616 102.563792 716.328829 100.634636 C 716.528397 100.102455 716.62343 99.332693 716.62343 98.306344 C 716.62343 95.85451 715.435526 93.592741 713.059718 91.540043 C 710.702916 89.487344 707.072681 87.026007 702.169013 84.146528 C 696.932732 80.962945 692.675284 78.121479 689.396669 75.622128 C 686.118054 73.113275 683.267084 69.977208 680.834257 66.194922 C 678.429939 62.393629 677.232532 57.917607 677.232532 52.785861 C 677.232532 49.184136 677.793222 45.639431 678.924107 42.161247 C 681.071838 35.100346 685.481337 29.417413 692.143103 25.112449 C 698.823876 20.778975 706.473978 18.612238 715.083906 18.612238 Z M 715.083906 18.612238 " stroke="#ff52b4" stroke-width="5.768588" stroke-opacity="1" stroke-miterlimit="4"/><g fill="#1ed5c3" fill-opacity="1"><g transform="translate(643.146881, 448.23236)"><g><path d="M 71.765625 -71.222656 C 71.058594 -71.152344 70.398438 -70.640625 70.203125 -69.90625 C 70 -69.261719 68.625 -63.410156 66.929688 -56.273438 C 65.269531 -49.679688 63.453125 -42 62.070312 -36.234375 L 39.175781 -33.933594 L 39.890625 -37.488281 C 41.292969 -43.96875 42.976562 -52.082031 45.566406 -58.324219 C 46.617188 -61.199219 49.035156 -63.761719 51.703125 -65.636719 C 52.375 -66.0625 52.667969 -66.714844 52.597656 -67.421875 C 52.523438 -68.128906 51.878906 -69.226562 50.554688 -69.09375 C 50.289062 -69.066406 49.945312 -68.941406 49.695312 -68.738281 C 47.859375 -67.484375 46.304688 -66.078125 44.464844 -63.929688 C 40.054688 -64.289062 36.042969 -65.136719 32.300781 -65.921875 C 26.105469 -67.171875 20.457031 -68.300781 13.917969 -67.644531 C 6.136719 -66.863281 -0.664062 -59.035156 0.195312 -50.460938 C 0.96875 -42.773438 6.796875 -38.089844 15.371094 -38.953125 C 18.550781 -39.273438 21.917969 -40.414062 24.871094 -42.140625 C 25.542969 -42.5625 25.835938 -43.21875 25.761719 -43.925781 C 25.691406 -44.632812 25.046875 -45.726562 23.808594 -45.605469 C 23.457031 -45.566406 23.199219 -45.453125 22.941406 -45.339844 C 20.40625 -43.921875 17.648438 -42.929688 15.085938 -42.671875 C 9.074219 -42.070312 4.539062 -44.558594 3.882812 -51.101562 C 3.289062 -57.023438 8.457031 -63.34375 14.289062 -63.929688 C 20.210938 -64.527344 25.683594 -63.378906 31.515625 -62.179688 C 34.886719 -61.535156 38.4375 -60.824219 42.328125 -60.320312 L 42.117188 -59.765625 C 39.300781 -53.140625 37.632812 -44.851562 36.238281 -38.28125 L 35.199219 -33.535156 L 30.25 -33.039062 C 29.1875 -32.929688 28.480469 -31.96875 28.589844 -30.90625 C 28.6875 -29.933594 29.570312 -29.128906 30.632812 -29.238281 L 34.34375 -29.609375 C 34.148438 -28.875 33.972656 -27.964844 33.789062 -27.144531 C 30.984375 -14.183594 28.222656 -1.675781 15.496094 -0.394531 C 7.894531 0.367188 3.3125 -4.351562 2.609375 -11.332031 C 1.75 -19.90625 8.613281 -27.113281 16.480469 -27.902344 C 17.542969 -28.011719 18.246094 -28.972656 18.140625 -30.035156 C 18.042969 -31.007812 17.160156 -31.8125 16.097656 -31.703125 C 6.304688 -30.542969 -2.183594 -21.742188 -1.109375 -11.046875 C -0.203125 -2.03125 5.878906 4.320312 15.78125 3.324219 C 31.335938 1.761719 34.414062 -12.027344 37.527344 -26.359375 C 37.765625 -27.542969 38.003906 -28.726562 38.320312 -30.007812 L 61.125 -32.300781 L 60.039062 -27.996094 C 56.007812 -13.039062 53.730469 -3.703125 54.265625 1.601562 C 54.914062 8.054688 58.238281 12.71875 65.0625 12.210938 C 66.121094 12.105469 66.828125 11.140625 66.820312 10.160156 C 66.714844 9.097656 65.742188 8.304688 64.769531 8.402344 C 60.261719 8.855469 58.242188 5.664062 57.976562 1.226562 C 57.691406 -3.386719 59.527344 -10.890625 63.699219 -27.113281 C 64.148438 -28.855469 67.730469 -43.855469 70.5 -55.382812 L 73.78125 -68.925781 C 74.109375 -70.121094 73.269531 -71.375 71.765625 -71.222656 Z M 71.765625 -71.222656 "/></g></g></g><g fill="#1ed5c3" fill-opacity="1"><g transform="translate(714.824774, 441.030289)"><g><path d="M 37.394531 -25.007812 C 37.121094 -25.066406 36.847656 -25.128906 36.582031 -25.101562 C 35.875 -25.03125 35.210938 -24.519531 35.019531 -23.785156 C 31.117188 -11.964844 28.175781 -6.582031 23.933594 -6.15625 C 22.078125 -5.96875 21.167969 -7.039062 20.910156 -9.601562 C 20.667969 -11.988281 21.984375 -19.351562 24.425781 -28.792969 C 25.398438 -32.460938 26.597656 -37.402344 28.027344 -42.722656 C 28.351562 -43.917969 27.335938 -45.15625 25.921875 -45.011719 C 25.214844 -44.941406 24.550781 -44.429688 24.359375 -43.695312 C 21.023438 -30.683594 18.695312 -20.984375 16.222656 -14.484375 C 13.910156 -8.183594 10.585938 -4.8125 6.964844 -4.449219 C 3.78125 -4.128906 1.914062 -5.816406 1.550781 -9.441406 C 1.195312 -12.976562 1.980469 -14.929688 8.847656 -40.796875 C 9.171875 -41.992188 8.332031 -43.246094 6.828125 -43.09375 C 6.121094 -43.023438 5.460938 -42.511719 5.265625 -41.777344 C -1.007812 -18.914062 -2.605469 -13.488281 -2.160156 -9.066406 C -1.558594 -3.058594 1.679688 -0.167969 7.246094 -0.726562 L 7.335938 -0.738281 C 11.3125 -1.136719 15.113281 -4.195312 17.3125 -8.078125 C 18.234375 -4.242188 20.417969 -2.050781 24.304688 -2.441406 C 30.226562 -3.039062 34.105469 -8.871094 38.527344 -22.621094 C 38.589844 -22.894531 38.652344 -23.167969 38.625 -23.433594 C 38.554688 -24.140625 38.050781 -24.714844 37.394531 -25.007812 Z M 37.394531 -25.007812 "/></g></g></g><g fill="#1ed5c3" fill-opacity="1"><g transform="translate(750.265996, 437.469216)"><g><path d="M 37.128906 -24.980469 C 36.855469 -25.042969 36.582031 -25.101562 36.316406 -25.078125 C 35.609375 -25.003906 35.035156 -24.5 34.753906 -23.757812 C 30.535156 -11.550781 27.824219 -6.546875 23.667969 -6.128906 C 21.8125 -5.941406 20.902344 -7.011719 20.644531 -9.574219 C 19.960938 -16.378906 25.691406 -28.652344 24.898438 -36.515625 C 24.429688 -41.203125 22.121094 -44.628906 15.757812 -43.992188 C 12.839844 -43.699219 10.269531 -41.742188 7.972656 -38.835938 L 8.5 -40.671875 C 8.828125 -41.867188 7.8125 -43.101562 6.484375 -42.96875 C 5.691406 -42.890625 5.027344 -42.378906 4.84375 -41.554688 C 2.34375 -31.75 -1.617188 -15.195312 -4.933594 -2.003906 C -5.179688 -0.90625 -4.550781 0.0117188 -3.542969 0.265625 C -2.546875 0.433594 -1.527344 -0.113281 -1.28125 -1.210938 L 3.144531 -19.332031 C 5.21875 -27.128906 10.738281 -39.738281 16.128906 -40.277344 C 19.578125 -40.625 20.929688 -38.707031 21.1875 -36.144531 C 21.960938 -28.453125 16.097656 -17.507812 16.929688 -9.199219 C 17.367188 -4.871094 19.796875 -1.988281 24.042969 -2.414062 C 30.050781 -3.019531 33.683594 -8.652344 38.351562 -22.601562 C 38.414062 -22.875 38.476562 -23.148438 38.449219 -23.414062 C 38.378906 -24.121094 37.871094 -24.695312 37.128906 -24.980469 Z M 37.128906 -24.980469 "/></g></g></g><g fill="#1ed5c3" fill-opacity="1"><g transform="translate(785.530449, 433.925905)"><g><path d="M 20.335938 -23.292969 C 20.0625 -23.355469 19.789062 -23.414062 19.523438 -23.390625 C 18.816406 -23.316406 18.152344 -22.804688 17.863281 -22.152344 C 14.621094 -12.628906 11.117188 -4.867188 4.753906 -4.226562 C 2.984375 -4.050781 1.792969 -5.269531 1.550781 -7.65625 C 1.292969 -10.21875 2.035156 -14.398438 4.628906 -25.015625 C 6.71875 -33.53125 7.8125 -37.746094 8.175781 -39.480469 L 15.421875 -40.207031 C 16.484375 -40.3125 17.199219 -41.191406 17.09375 -42.25 C 16.996094 -43.222656 16.109375 -44.027344 15.050781 -43.921875 L 9.128906 -43.324219 C 9.578125 -45.066406 12.296875 -56.230469 12.082031 -55.675781 C 12.410156 -56.867188 11.394531 -58.105469 10.066406 -57.972656 C 9.269531 -57.890625 8.609375 -57.378906 8.421875 -56.558594 C 8.371094 -56.195312 5.292969 -43.296875 5.152344 -42.925781 L -1.65625 -42.242188 C -2.714844 -42.136719 -3.421875 -41.171875 -3.324219 -40.199219 C -3.21875 -39.136719 -2.34375 -38.421875 -1.28125 -38.527344 L 4.285156 -39.089844 L 1.046875 -25.996094 C -1.050781 -18.464844 -2.488281 -10.554688 -2.160156 -7.28125 C -1.734375 -3.039062 0.882812 -0.0898438 5.125 -0.515625 C 13.257812 -1.332031 17.453125 -9.34375 21.46875 -20.90625 C 21.53125 -21.179688 21.59375 -21.453125 21.566406 -21.71875 C 21.496094 -22.425781 20.992188 -23 20.335938 -23.292969 Z M 20.335938 -23.292969 "/></g></g></g></svg>